<svg width="65" height="22" viewBox="0 0 65 22" fill="none" xmlns="http://www.w3.org/2000/svg">
<g clip-path="url(#clip0_7853_19514)">
<path d="M14.2199 1.36328C12.6183 1.36328 11.1676 1.98095 10.0707 2.98665C8.97777 1.98491 7.52315 1.36328 5.92149 1.36328C2.53931 1.36328 -0.210938 4.10321 -0.210938 7.47665V20.4873H3.76342V7.47665C3.76342 6.28882 4.73315 5.32272 5.92149 5.32272C7.10982 5.32272 8.08354 6.28882 8.08354 7.47665V20.4873H12.0579V7.47665C12.0579 6.28882 13.0276 5.32272 14.2199 5.32272C15.4122 5.32272 16.378 6.28882 16.378 7.47665V20.4675H20.3524V7.47665C20.3524 4.10717 17.6021 1.36328 14.2199 1.36328Z" fill="#0063FD"/>
<path d="M32.8853 1.31641C27.5239 1.31641 23.1641 5.6599 23.1641 11.0012C23.1641 16.3425 27.5239 20.686 32.8853 20.686C38.2467 20.686 42.6066 16.3425 42.6066 11.0012C42.6066 5.6599 38.2467 1.31641 32.8853 1.31641ZM32.8853 16.7305C29.7138 16.7305 27.1384 14.1608 27.1384 11.0051C27.1384 7.84947 29.7178 5.2798 32.8853 5.2798C36.0529 5.2798 38.6322 7.84947 38.6322 11.0051C38.6322 14.1608 36.0529 16.7305 32.8853 16.7305Z" fill="#0063FD"/>
<path d="M60.5483 3.19714C58.9386 2.01723 56.9475 1.31641 54.8013 1.31641C49.4399 1.31641 45.0801 5.6599 45.0801 11.0012C45.0801 16.3425 49.4399 20.686 54.8013 20.686C56.9515 20.686 58.9386 19.9851 60.5483 18.8052V20.484H64.5226V1.52626H60.5483V3.19714ZM54.8013 16.7305C51.6298 16.7305 49.0544 14.1608 49.0544 11.0051C49.0544 7.84947 51.6338 5.2798 54.8013 5.2798C57.9689 5.2798 60.5483 7.84947 60.5483 11.0051C60.5483 14.1608 57.9689 16.7305 54.8013 16.7305Z" fill="#0063FD"/>
</g>
<defs>
<clipPath id="clip0_7853_19514">
<rect width="64.3098" height="22.0007" fill="white"/>
</clipPath>
</defs>
</svg>
