<svg width="219" height="28" viewBox="0 0 219 28" fill="none" xmlns="http://www.w3.org/2000/svg">
<path d="M74.0305 10.1962C73.2584 9.93571 69.5923 8.66032 65.3053 12.1283L66.0126 13.4526L66.5039 14.3372V14.3698C66.5418 14.433 66.5922 14.4878 66.6519 14.5308C66.7116 14.5738 66.7794 14.6041 66.8512 14.6199C66.923 14.6356 66.9972 14.6365 67.0693 14.6224C67.1414 14.6083 67.2099 14.5796 67.2706 14.538C67.8784 14.0883 68.5296 13.7011 69.2143 13.382C69.3763 13.3169 69.5383 13.2517 69.7003 13.1975C71.1419 12.7362 72.3999 13.0509 72.8967 13.5828C73.7011 14.4457 73.4366 16.4212 73.4366 16.4212C72.0041 16.424 70.5766 16.5915 69.1819 16.9205C68.2286 17.1466 67.3173 17.524 66.4823 18.0386C65.8822 18.4063 65.3873 18.9243 65.0461 19.5419C64.7816 20.044 64.6391 20.602 64.6303 21.1701C64.6147 21.7768 64.7212 22.3804 64.9435 22.9448C65.1422 23.4386 65.4528 23.879 65.8506 24.231C66.2573 24.5827 66.7314 24.8468 67.2436 25.0071C67.8242 25.1861 68.4289 25.274 69.0362 25.2676C69.518 25.273 69.9992 25.2294 70.4724 25.1374C70.8887 25.0552 71.2944 24.9259 71.6818 24.752C72.0607 24.5768 72.4222 24.366 72.7617 24.1225C72.983 23.9597 73.2152 23.7806 73.4474 23.5797V24.4698C73.4474 24.6137 73.5043 24.7518 73.6055 24.8536C73.7068 24.9554 73.8441 25.0125 73.9873 25.0125H75.2453C75.3334 25.0207 75.4219 25.0207 75.5099 25.0125H77.3349V15.6234C77.3241 14.8365 77.0757 11.2817 74.0305 10.1962ZM71.9734 22.2067C71.4321 22.4563 70.8409 22.577 70.2456 22.5594C69.7684 22.5875 69.295 22.46 68.8958 22.1958C68.7221 22.045 68.5872 21.8542 68.5026 21.6397C68.418 21.4252 68.3862 21.1933 68.4098 20.9638C68.4088 20.6767 68.4914 20.3956 68.6474 20.1552C68.8571 19.869 69.1358 19.6411 69.4573 19.493C69.9483 19.2658 70.4678 19.1069 71.0015 19.0209C71.8031 18.8832 72.613 18.7998 73.4258 18.7712V21.0941C73.0109 21.5483 72.5191 21.925 71.9734 22.2067Z" fill="#060708"/>
<path d="M62.1737 5.46903C62.0461 5.1756 61.8627 4.9101 61.6337 4.68751C61.4059 4.45749 61.1365 4.27329 60.84 4.14479C60.5274 4.01934 60.1939 3.95487 59.8574 3.95483C59.5366 3.95541 59.2191 4.01997 58.9233 4.14479C58.6341 4.27498 58.3721 4.45915 58.1512 4.68751C57.9213 4.90935 57.7378 5.17504 57.6113 5.46903C57.4775 5.7694 57.4094 6.09513 57.4115 6.42422C57.4101 6.74974 57.4782 7.07178 57.6113 7.36856C57.7413 7.65738 57.9245 7.91887 58.1512 8.13922C58.3741 8.36647 58.6397 8.54684 58.9326 8.66984C59.2256 8.79284 59.5399 8.85599 59.8574 8.85561C60.1942 8.85819 60.5282 8.79363 60.84 8.66566C61.1387 8.5412 61.4089 8.35648 61.6337 8.12294C61.8579 7.90042 62.0408 7.63943 62.1737 7.35227C62.3099 7.05656 62.3782 6.7338 62.3734 6.40794C62.3731 6.08435 62.305 5.76445 62.1737 5.46903Z" fill="#060708"/>
<path d="M61.9037 10.8367H57.8759V25.0126H61.9037V10.8367Z" fill="#060708"/>
<path d="M55.1978 17.4035C55.1978 16.3832 54.9332 10.1419 49.3773 10.0605C48.5011 10.0422 47.6306 10.2053 46.8197 10.5396C46.0088 10.8738 45.275 11.3721 44.6638 12.0034V4.12308V3.95483H40.7115V7.30886V25.0124H44.167C44.3102 25.0124 44.4476 24.9553 44.5488 24.8535C44.6501 24.7517 44.707 24.6137 44.707 24.4697V23.6828C46.073 25.2458 48.2597 25.2675 48.67 25.2621C55.2302 25.2892 55.2086 18.5106 55.1978 17.4035ZM47.493 22.2554C46.9256 22.2651 46.3656 22.1249 45.869 21.8487C45.3725 21.5724 44.9569 21.17 44.6638 20.6815V14.8473C45.0082 14.3076 45.4829 13.8643 46.0437 13.5588C46.6045 13.2532 47.2331 13.0953 47.8709 13.0997C48.2921 13.0997 51.1969 13.2245 51.1969 17.4849C51.1969 22.4671 47.9573 22.2608 47.493 22.2554Z" fill="#060708"/>
<path d="M14.8435 14.283V16.9694C14.8435 17.1134 14.9004 17.2514 15.0017 17.3532C15.1029 17.455 15.2403 17.5121 15.3835 17.5121H18.1371V21.0507C17.6157 21.2915 17.0735 21.484 16.5173 21.626C14.9712 21.9843 13.3551 21.8863 11.8631 21.3438C11.0456 21.0295 10.3079 20.5364 9.70341 19.9001C9.08204 19.2327 8.60741 18.4412 8.31039 17.5773C7.96944 16.5713 7.80324 15.5138 7.81906 14.4512C7.80548 13.4578 7.95694 12.4692 8.2672 11.5259C8.54022 10.6991 8.97739 9.93652 9.55223 9.28448C10.1106 8.65881 10.8003 8.1657 11.5716 7.84084C12.4122 7.49366 13.3138 7.32016 14.2226 7.33068C14.7375 7.32403 15.252 7.35851 15.7614 7.4338C16.1793 7.49365 16.5912 7.58989 16.9924 7.72145C17.3627 7.84322 17.7236 7.99196 18.0723 8.16648C18.4071 8.34015 18.7472 8.5301 19.0982 8.74176L19.7137 9.17594C19.8323 9.24462 19.9724 9.26545 20.1058 9.23422C20.2391 9.20299 20.3556 9.12202 20.4318 9.0077L22.0786 6.42434C21.1466 5.55696 20.0579 4.87715 18.8714 4.4217C18.1971 4.1607 17.4991 3.96621 16.7873 3.84098C15.9964 3.71554 15.1958 3.66286 14.3954 3.68359C12.8402 3.66236 11.2948 3.93292 9.83839 4.48139C8.54167 4.97867 7.36011 5.73782 6.36665 6.71198C5.39851 7.67789 4.64576 8.83967 4.15834 10.1203C3.62764 11.5049 3.36379 12.9783 3.38084 14.4621C3.36371 15.9488 3.63895 17.4243 4.19074 18.8038C4.71406 20.0924 5.49932 21.257 6.49623 22.223C7.53038 23.2113 8.75386 23.9776 10.0922 24.4753C11.594 25.0302 13.1842 25.3042 14.7841 25.2839C16.0867 25.2907 17.3834 25.1079 18.6338 24.7412C19.8654 24.3688 21.0236 23.7849 22.057 23.0153V14.283H14.8435Z" fill="#060708"/>
<path d="M37.4719 15.6235C37.4719 14.8257 37.2343 11.2817 34.1838 10.1962C33.4171 9.93031 29.7563 8.66034 25.4693 12.1229L26.1766 13.4526L26.6679 14.3372V14.3698C26.7427 14.4903 26.8615 14.5765 26.9987 14.61C27.136 14.6434 27.2809 14.6215 27.4022 14.5489C28.0077 14.0985 28.6572 13.7112 29.3406 13.3929C29.5026 13.3278 29.6699 13.2626 29.8319 13.2084C31.2735 12.747 32.5316 13.0618 33.0229 13.5937C33.8274 14.4512 33.5628 16.4267 33.5628 16.4267C32.1305 16.4325 30.7033 16.5999 29.3082 16.926C28.3546 17.151 27.4431 17.5284 26.6085 18.044C26.0072 18.4101 25.5119 18.9285 25.1723 19.5473C24.9056 20.0488 24.7612 20.6069 24.7512 21.1755C24.7406 21.7806 24.8489 22.3818 25.0698 22.9448C25.2664 23.4384 25.5752 23.8788 25.9714 24.231C26.3781 24.5827 26.8522 24.8468 27.3644 25.0071C27.9451 25.1862 28.5497 25.274 29.157 25.2676C29.6389 25.273 30.1201 25.2294 30.5932 25.1374C31.0078 25.0552 31.4117 24.9259 31.7973 24.7521C32.1767 24.578 32.5384 24.3671 32.8771 24.1225C33.0985 23.9597 33.3307 23.786 33.5628 23.5798V24.4101C33.5706 24.5515 33.63 24.6851 33.7296 24.7852C33.8292 24.8854 33.9621 24.9451 34.1028 24.9529H37.4449L37.4719 15.6235ZM32.132 22.2284C31.592 22.4765 31.0033 22.5989 30.4096 22.5866C29.9324 22.6155 29.4587 22.4879 29.0598 22.223C28.8865 22.0718 28.7518 21.881 28.6673 21.6666C28.5827 21.4522 28.5507 21.2205 28.5739 20.991C28.5729 20.7039 28.6555 20.4228 28.8115 20.1823C29.0199 19.895 29.299 19.6668 29.6214 19.5202C30.1102 19.2922 30.628 19.1333 31.1602 19.048C31.9618 18.9104 32.7717 18.827 33.5844 18.7984V21.1212C33.168 21.5723 32.6765 21.9469 32.132 22.2284Z" fill="#060708"/>
<path d="M101.934 20.5079C102.019 20.507 102.103 20.5245 102.18 20.5591C102.257 20.5938 102.326 20.6448 102.382 20.7087L103.597 22.0492C102.752 23.0563 101.69 23.8579 100.492 24.3938C99.099 24.9814 97.5971 25.2644 96.0866 25.2241C94.6835 25.2427 93.2912 24.975 91.9939 24.4372C90.8107 23.9418 89.7452 23.2001 88.8677 22.2609C87.9819 21.2798 87.3007 20.13 86.8646 18.8797C86.3785 17.4851 86.1391 16.0156 86.1573 14.5379C86.1373 13.0569 86.3899 11.5849 86.9024 10.1962C87.3641 8.9402 88.075 7.7917 88.9919 6.82044C89.908 5.86931 91.0113 5.1207 92.2315 4.62242C93.5481 4.08619 94.9577 3.81868 96.3781 3.83547C98.9479 3.77216 101.439 4.72962 103.311 6.50024L102.296 7.93845C102.23 8.04344 102.144 8.13391 102.042 8.20438C101.921 8.27481 101.782 8.30873 101.642 8.30207C101.405 8.27941 101.18 8.18263 101 8.02528C100.69 7.79773 100.365 7.59105 100.028 7.40658C99.558 7.14846 99.0621 6.94107 98.5487 6.78788C97.8312 6.59111 97.0892 6.49971 96.3457 6.51652C95.3742 6.50397 94.4101 6.68856 93.5111 7.05924C92.665 7.41572 91.9059 7.95274 91.2866 8.63313C90.6393 9.36313 90.147 10.2182 89.8396 11.1459C89.4751 12.2315 89.2926 13.3705 89.2997 14.5162C89.2822 15.6681 89.465 16.8141 89.8396 17.9028C90.1614 18.8327 90.6643 19.6888 91.319 20.4211C91.9335 21.1021 92.6892 21.6394 93.5327 21.9949C94.4032 22.3596 95.3379 22.5442 96.281 22.5377C96.8228 22.5412 97.3642 22.5049 97.9007 22.4291C98.3488 22.361 98.7898 22.252 99.2182 22.1035C99.6145 21.9641 99.9946 21.7822 100.352 21.5608C100.737 21.3222 101.098 21.0478 101.432 20.7413C101.506 20.6739 101.59 20.6172 101.68 20.573C101.759 20.5331 101.846 20.5109 101.934 20.5079Z" fill="#060708"/>
<path d="M111.383 9.99538C112.386 9.98546 113.381 10.1697 114.315 10.5381C115.161 10.8738 115.923 11.3948 116.544 12.0631C117.173 12.7594 117.652 13.5777 117.954 14.4674C118.295 15.4809 118.461 16.5455 118.445 17.6152C118.461 18.6885 118.295 19.7566 117.954 20.7738C117.655 21.6631 117.175 22.48 116.544 23.1727C115.923 23.8395 115.161 24.3586 114.315 24.6923C112.42 25.4014 110.335 25.4014 108.44 24.6923C107.591 24.3573 106.826 23.8385 106.199 23.1727C105.564 22.4809 105.079 21.6641 104.774 20.7738C104.431 19.7569 104.263 18.6888 104.277 17.6152C104.263 16.5451 104.431 15.4805 104.774 14.4674C105.081 13.5767 105.566 12.7585 106.199 12.0631C106.826 11.3957 107.591 10.875 108.44 10.5381C109.377 10.1682 110.376 9.98392 111.383 9.99538ZM111.383 23.0207C111.977 23.0618 112.572 22.9544 113.114 22.7082C113.657 22.462 114.131 22.0846 114.493 21.6096C115.177 20.6653 115.52 19.341 115.524 17.6369C115.528 15.9328 115.184 14.6067 114.493 13.6588C114.133 13.1807 113.66 12.8004 113.117 12.5521C112.574 12.3039 111.978 12.1955 111.383 12.2368C110.782 12.1935 110.18 12.3007 109.631 12.5489C109.081 12.797 108.602 13.1784 108.235 13.6588C107.562 14.6067 107.225 15.9273 107.225 17.6206C107.225 19.3139 107.562 20.6382 108.235 21.5933C108.604 22.0703 109.084 22.4485 109.633 22.6946C110.182 22.9407 110.783 23.0471 111.383 23.0044V23.0207Z" fill="#060708"/>
<path d="M120.864 25.0126V10.2288H122.554C122.726 10.2139 122.897 10.2641 123.034 10.3696C123.171 10.475 123.263 10.6281 123.294 10.7987L123.499 12.2098C124.009 11.5846 124.616 11.0459 125.297 10.6142C125.998 10.1905 126.806 9.97588 127.624 9.99546C128.487 9.95779 129.332 10.2463 129.994 10.8041C130.632 11.3885 131.094 12.1404 131.328 12.975C131.523 12.4796 131.802 12.0222 132.154 11.6236C132.48 11.2696 132.861 10.9709 133.282 10.739C133.695 10.496 134.141 10.3133 134.605 10.1963C135.072 10.0818 135.55 10.0235 136.031 10.0226C136.746 10.0105 137.458 10.1376 138.125 10.3971C138.72 10.6335 139.252 11.005 139.68 11.4825C140.123 11.9955 140.452 12.5966 140.647 13.2464C140.88 14.0184 140.993 14.8221 140.982 15.6289V25.0126H138.147V15.6235C138.208 14.7305 137.954 13.8444 137.429 13.1215C137.164 12.8333 136.839 12.6081 136.476 12.4626C136.114 12.317 135.724 12.2547 135.334 12.2803C134.939 12.2787 134.547 12.3504 134.179 12.492C133.815 12.6267 133.487 12.8419 133.218 13.1215C132.931 13.4222 132.709 13.7787 132.564 14.169C132.398 14.6355 132.318 15.1282 132.327 15.6235V25.0126H129.492V15.6235C129.576 14.7187 129.339 13.8131 128.823 13.0673C128.574 12.7886 128.265 12.5705 127.92 12.4294C127.575 12.2884 127.202 12.2281 126.83 12.2532C126.232 12.2488 125.644 12.4144 125.135 12.7308C124.584 13.0779 124.1 13.5208 123.704 14.0387V25.0126H120.864Z" fill="#060708"/>
<path d="M144.065 25.0126V10.2288H145.755C145.926 10.2139 146.098 10.2641 146.234 10.3696C146.371 10.475 146.464 10.6281 146.494 10.7987L146.7 12.2098C147.211 11.5831 147.82 11.0442 148.503 10.6142C149.203 10.1914 150.008 9.97692 150.825 9.99546C151.687 9.95779 152.533 10.2463 153.195 10.8041C153.832 11.3885 154.294 12.1404 154.529 12.975C154.723 12.4796 155.003 12.0222 155.355 11.6236C155.681 11.2696 156.062 10.9709 156.483 10.739C156.896 10.496 157.342 10.3133 157.806 10.1963C158.272 10.0818 158.751 10.0235 159.231 10.0226C159.947 10.0105 160.658 10.1376 161.326 10.3971C161.921 10.6335 162.453 11.005 162.881 11.4825C163.323 11.9955 163.653 12.5966 163.848 13.2464C164.081 14.0184 164.194 14.8221 164.182 15.6289V25.0126H161.348V15.6235C161.409 14.7305 161.155 13.8444 160.63 13.1215C160.366 12.8258 160.039 12.594 159.673 12.4436C159.308 12.2932 158.913 12.2281 158.519 12.2532C158.122 12.251 157.728 12.3227 157.358 12.4648C156.994 12.5996 156.666 12.8147 156.397 13.0944C156.11 13.3951 155.888 13.7515 155.743 14.1419C155.578 14.6083 155.497 15.1011 155.506 15.5964V25.0126H152.687V15.6235C152.775 14.7215 152.546 13.8171 152.039 13.0673C151.789 12.7885 151.48 12.5704 151.134 12.4293C150.788 12.2883 150.414 12.2281 150.042 12.2532C149.443 12.2488 148.855 12.4144 148.346 12.7308C147.797 13.0793 147.313 13.522 146.916 14.0387V25.0126H144.065Z" fill="#060708"/>
<path d="M179.338 22.9012C178.989 23.3083 178.584 23.6629 178.134 23.9541C177.682 24.2515 177.196 24.4938 176.687 24.6759C176.172 24.8611 175.64 24.9974 175.1 25.083C174.564 25.1694 174.023 25.2129 173.48 25.2132C172.515 25.2133 171.558 25.0291 170.662 24.6705C169.813 24.338 169.048 23.821 168.421 23.1563C167.759 22.4463 167.254 21.6027 166.941 20.6815C166.569 19.5905 166.386 18.443 166.402 17.2895C166.394 16.3099 166.557 15.3365 166.882 14.4131C167.181 13.5578 167.646 12.7703 168.248 12.0956C168.848 11.4267 169.585 10.8955 170.408 10.538C171.322 10.1466 172.308 9.95243 173.302 9.96817C174.148 9.95818 174.989 10.1092 175.78 10.4132C176.519 10.6951 177.19 11.1338 177.745 11.6995C178.317 12.2963 178.758 13.006 179.041 13.7835C179.369 14.6873 179.528 15.644 179.511 16.6057C179.537 16.9064 179.487 17.2088 179.365 17.4849C179.302 17.5651 179.219 17.6277 179.124 17.6666C179.03 17.7056 178.927 17.7196 178.825 17.7074H169.231C169.245 18.4906 169.372 19.2675 169.609 20.014C169.803 20.613 170.115 21.1667 170.527 21.6421C170.904 22.0948 171.383 22.4503 171.925 22.6787C172.502 22.9001 173.116 23.0087 173.734 22.9989C174.282 23.0096 174.828 22.9364 175.354 22.7818C175.76 22.6566 176.155 22.4987 176.536 22.3097C176.838 22.1597 177.132 21.993 177.416 21.8104C177.591 21.6825 177.799 21.6072 178.015 21.5933C178.12 21.5874 178.224 21.6082 178.319 21.6538C178.413 21.6993 178.494 21.7681 178.555 21.8538L179.338 22.9012ZM177.006 15.9761C177.01 15.4475 176.93 14.9215 176.768 14.4185C176.617 13.9638 176.379 13.5434 176.066 13.1811C175.752 12.8318 175.368 12.5542 174.938 12.367C174.45 12.1653 173.926 12.0674 173.399 12.0794C172.888 12.0518 172.376 12.129 171.895 12.3063C171.414 12.4835 170.975 12.7572 170.602 13.1105C169.875 13.9007 169.42 14.9057 169.306 15.9761H177.006Z" fill="#060708"/>
<path d="M184.532 13.0672C184.932 12.1917 185.514 11.4126 186.239 10.7824C186.915 10.2253 187.767 9.93063 188.641 9.95201C188.947 9.9512 189.251 9.98765 189.548 10.0606C189.813 10.1286 190.065 10.2404 190.293 10.3916L190.104 12.5299C190.087 12.6435 190.028 12.7466 189.939 12.8188C189.85 12.8911 189.738 12.9274 189.624 12.9207C189.42 12.9119 189.218 12.8846 189.019 12.8393C188.733 12.7854 188.441 12.76 188.15 12.7633C187.74 12.7562 187.332 12.8223 186.946 12.9587C186.602 13.0896 186.286 13.2869 186.017 13.5394C185.726 13.8152 185.479 14.1336 185.283 14.4837C185.054 14.8938 184.856 15.3201 184.689 15.7591V24.9854H181.87V10.2288H183.49C183.713 10.2016 183.937 10.2619 184.117 10.397C184.254 10.5637 184.338 10.7678 184.36 10.9832L184.532 13.0672Z" fill="#060708"/>
<path d="M201.508 12.9913C201.434 13.0869 201.349 13.1726 201.254 13.2464C201.152 13.3188 201.028 13.3533 200.903 13.3441C200.725 13.3375 200.555 13.2727 200.417 13.1595C200.212 13.0179 199.999 12.8875 199.78 12.7688C199.482 12.6086 199.172 12.4743 198.851 12.3672C198.417 12.2373 197.965 12.1768 197.512 12.1881C196.88 12.1745 196.252 12.3043 195.676 12.568C195.153 12.8144 194.699 13.1873 194.354 13.6534C193.978 14.1635 193.705 14.7424 193.549 15.3576C193.357 16.0925 193.264 16.8501 193.274 17.6099C193.263 18.3887 193.361 19.1652 193.565 19.9164C193.73 20.5228 194.009 21.092 194.386 21.5934C194.726 22.0578 195.175 22.4306 195.693 22.6789C196.229 22.9215 196.811 23.042 197.399 23.0317C197.91 23.0477 198.42 22.9724 198.905 22.8091C199.249 22.6827 199.579 22.5189 199.888 22.3207C200.115 22.1706 200.333 22.0075 200.541 21.8322C200.688 21.6945 200.88 21.6154 201.081 21.6097C201.186 21.6039 201.29 21.6247 201.384 21.6702C201.479 21.7158 201.56 21.7846 201.621 21.8702L202.431 22.9177C202.105 23.3306 201.723 23.6959 201.297 24.0031C200.879 24.2898 200.43 24.5283 199.958 24.7141C199.478 24.9002 198.981 25.0366 198.473 25.1211C197.954 25.208 197.429 25.2516 196.902 25.2514C196.02 25.259 195.145 25.0854 194.332 24.7412C193.534 24.3982 192.824 23.8788 192.253 23.2216C191.641 22.5228 191.171 21.7095 190.871 20.8282C190.517 19.7914 190.345 18.7005 190.364 17.6044C190.353 16.5731 190.508 15.5468 190.823 14.5652C191.099 13.6769 191.557 12.8563 192.167 12.1555C192.774 11.4731 193.522 10.9322 194.359 10.5708C195.302 10.1719 196.317 9.97589 197.339 9.99548C198.291 9.97529 199.237 10.1488 200.12 10.5056C200.923 10.8445 201.656 11.3324 202.28 11.9438L201.508 12.9913Z" fill="#060708"/>
<path d="M216.14 22.9012C215.794 23.3095 215.39 23.6643 214.941 23.9541C214.488 24.2505 214.003 24.4927 213.494 24.6759C212.979 24.8611 212.447 24.9974 211.907 25.083C211.371 25.1694 210.829 25.2129 210.287 25.2132C209.324 25.2127 208.369 25.0286 207.474 24.6705C206.624 24.3369 205.857 23.82 205.228 23.1563C204.567 22.446 204.065 21.6023 203.754 20.6815C203.381 19.5905 203.198 18.443 203.214 17.2895C203.206 16.3099 203.369 15.3365 203.694 14.4131C203.994 13.5578 204.458 12.7703 205.06 12.0957C205.66 11.4262 206.397 10.8949 207.22 10.538C208.136 10.1465 209.124 9.95233 210.12 9.96818C210.966 9.95819 211.807 10.1092 212.598 10.4132C213.337 10.6952 214.008 11.1339 214.563 11.6995C215.131 12.298 215.57 13.0074 215.854 13.7835C216.185 14.6863 216.347 15.6434 216.329 16.6057C216.354 16.9064 216.304 17.2088 216.183 17.4849C216.119 17.5651 216.036 17.6277 215.942 17.6667C215.847 17.7056 215.744 17.7196 215.643 17.7074H206.032C206.047 18.4906 206.174 19.2676 206.41 20.014C206.605 20.613 206.917 21.1667 207.328 21.6421C207.707 22.0955 208.188 22.451 208.732 22.6787C209.309 22.9001 209.923 23.0087 210.541 22.9989C211.088 23.0096 211.635 22.9364 212.16 22.7818C212.566 22.6556 212.962 22.4978 213.343 22.3097C213.632 22.1673 213.913 22.0097 214.185 21.8375C214.361 21.7096 214.568 21.6343 214.785 21.6204C214.889 21.6146 214.993 21.6354 215.088 21.6809C215.182 21.7265 215.264 21.7953 215.324 21.8809L216.14 22.9012ZM213.813 15.9761C213.817 15.4475 213.737 14.9216 213.575 14.4185C213.424 13.9638 213.185 13.5434 212.873 13.1811C212.558 12.8303 212.172 12.5525 211.739 12.367C211.019 12.0924 210.238 12.0165 209.479 12.1473C208.719 12.278 208.008 12.6106 207.42 13.1105C206.693 13.9007 206.238 14.9057 206.124 15.9761H213.813Z" fill="#060708"/>
</svg>
