<?xml version="1.0" encoding="utf-8"?>
<!-- Generator: Adobe Illustrator 26.5.2, SVG Export Plug-In . SVG Version: 6.00 Build 0)  -->
<svg version="1.1" id="Layer_1" xmlns="http://www.w3.org/2000/svg" xmlns:xlink="http://www.w3.org/1999/xlink" x="0px" y="0px"
	 viewBox="0 0 160.5 39.4" style="enable-background:new 0 0 160.5 39.4;" xml:space="preserve">
<style type="text/css">
	.st0{fill:#0042CF;}
</style>
<g>
	<path class="st0" d="M112.6,25.8c-3.3,0-5.9-2.7-5.9-6.2c0-3.6,2.4-6.1,5.9-6.1c2-0.1,3.8,1,4.8,2.7h4.7c-1.3-3.8-5.2-6.5-9.6-6.5
		c-5.5-0.1-10,4.2-10,9.7c0,0.1,0,0.3,0,0.4c0,5.5,4.4,9.8,10.1,9.8c4.3,0.1,8.2-2.6,9.6-6.6h-4.7C116.5,24.7,114.6,25.8,112.6,25.8
		z"/>
	<g>
		<g>
			<g>
				<path class="st0" d="M0.3,18.3l1.9,7.3c0.3,0.4,0.6,0.7,0.9,1l-2.5-9.7C0.5,17.4,0.4,17.8,0.3,18.3z M0.7,16.7l3.5,10.9
					c0.3,0.2,0.5,0.4,0.8,0.5l-4-12.4C0.9,16.1,0.8,16.4,0.7,16.7z M4.8,20.5l-2.9-6.2c-0.1,0.2-0.3,0.4-0.4,0.6l6.8,14.4
					c0.2,0,0.5,0.1,0.7,0.1l-2.9-6.2C5.4,22.5,4.9,21.5,4.8,20.5z M7.4,24.3l2.9,5.2c0.2,0,0.5,0,0.7,0l-2.6-4.7
					C8,24.6,7.7,24.5,7.4,24.3z M10.1,25.1c-0.2,0-0.5,0-0.7,0l2.7,4.3c0.2,0,0.4-0.1,0.6-0.2L10.1,25.1
					C10.1,25.1,10.1,25.1,10.1,25.1z M13.9,23.5l3.1,3.3c0.1-0.1,0.3-0.3,0.4-0.4L14.3,23C14.2,23.2,14,23.4,13.9,23.5z M19.9,19.4
					L6.1,10.7c-0.2,0.1-0.4,0.2-0.7,0.3l5.3,3.4c1.6,0.2,3,1.1,3.8,2.4l5.3,3.4c0-0.2,0-0.3,0-0.5C19.9,19.6,19.9,19.5,19.9,19.4z
					 M4.9,18.5l-2.5-4.6L5,18c0.1-0.2,0.2-0.5,0.3-0.7l-2.4-3.8l2.5,3.5c0.1-0.2,0.2-0.4,0.4-0.6l-2.4-3.3l2.6,3.1
					c0.1-0.2,0.3-0.3,0.4-0.5l-2.5-3l2.7,2.9c0.2-0.1,0.3-0.3,0.5-0.4l-2.7-2.9l2.9,2.8c0.2-0.1,0.4-0.2,0.6-0.3l-3.1-2.9l3.3,2.8
					c0.2-0.1,0.5-0.2,0.7-0.2l-3.6-3l4,2.9c0.3-0.1,0.6-0.1,0.9-0.1L5.5,11c-1.5,0.8-2.7,1.9-3.6,3.3l2.9,5.2
					C4.7,19.1,4.8,18.8,4.9,18.5z M0.2,19.7c0,1.5,0.3,3,1,4.2L0.3,19C0.3,19.3,0.2,19.5,0.2,19.7z M1.1,15.7l5.2,13.1
					C6.5,28.9,6.8,29,7,29L1.5,15C1.3,15.2,1.2,15.4,1.1,15.7z M17.4,13.1L9.3,9.9C8.9,9.9,8.5,10,8.1,10l10.1,4
					C17.9,13.7,17.7,13.4,17.4,13.1z M19.7,17.4l-12.8-7c-0.3,0.1-0.5,0.2-0.7,0.3l13.7,7.5C19.8,17.9,19.7,17.6,19.7,17.4z
					 M18.9,15.3l-11-5.2c-0.3,0.1-0.6,0.2-0.9,0.3l12.3,5.8C19.2,15.8,19,15.5,18.9,15.3z M10.1,9.8c-0.1,0-0.2,0-0.3,0l6.3,2
					C14.4,10.6,12.4,9.8,10.1,9.8z M15.4,20.8l3.7,3c0.1-0.2,0.2-0.4,0.2-0.6L15.5,20C15.4,20.3,15.4,20.5,15.4,20.8z M14.8,22.3
					l3.3,3.1c0.1-0.2,0.2-0.3,0.3-0.5l-3.4-3.2C15,21.9,14.9,22.1,14.8,22.3z M15.4,19l4.2,3.1c0.1-0.2,0.1-0.4,0.1-0.7l-4.6-3.3
					C15.3,18.4,15.4,18.7,15.4,19z M12.6,24.4l2.9,3.5c0.2-0.1,0.3-0.2,0.5-0.4l-2.9-3.5C13,24.2,12.8,24.3,12.6,24.4z M11.1,25
					l2.8,3.8c0.2-0.1,0.4-0.2,0.6-0.3l-2.7-3.7C11.6,24.9,11.4,24.9,11.1,25z"/>
				<path class="st0" d="M15.5,19.6l4.5,9.8v-1.5l-4.5-9.8V19.6z M15.5,15.6l4.5,11.6v-1.7l-4.5-11.6V15.6z M19.2,9.8l0.7,3.3V9.8
					H19.2z M10.1,39.3c0.9,0,1.7-0.1,2.5-0.3l-2.5-0.3V39.3z M15.5,28.6L19,33l-3.5-3.9v0.3c0,0.2,0,0.4,0,0.5l3.1,3.4l-3.1-3.1
					c0,0.2-0.1,0.5-0.2,0.7l2.8,2.8l-2.9-2.5c-0.1,0.2-0.2,0.4-0.3,0.6l2.8,2.4l-2.9-2.2c-0.1,0.2-0.2,0.4-0.3,0.5l2.8,2.2l-3-2
					c-0.1,0.2-0.3,0.3-0.4,0.5l3,2.1l-3.2-1.9c-0.2,0.1-0.3,0.3-0.5,0.4l3.4,2L13,34c-0.2,0.1-0.4,0.3-0.6,0.4l4,2L12,34.5
					c-0.3,0.1-0.6,0.2-0.9,0.3l5,2.2l-5.7-2.1c-0.1,0-0.2,0-0.3,0v0.5l5.7,2.1c1.7-1.2,3-2.9,3.6-4.9l-4-5V28.6z M15.5,9.8v0.4
					l4.5,14.1v-2L16,9.8H15.5z M17.4,9.8L19.9,20v-2.5L18,9.8H17.4z M10.1,37.4l4.2,1c0.3-0.1,0.6-0.3,0.8-0.4l-5-1.2V37.4z
					 M10.1,36.4l5,1.5c0.2-0.1,0.5-0.3,0.7-0.4l-5.7-1.7V36.4z M10.1,38.4l2.9,0.5c0.4-0.1,0.8-0.3,1.1-0.4l-4-0.7V38.4z M15.5,22.6
					l4.4,8.2c0-0.4,0.1-0.8,0.1-1.1l-4.5-8.4V22.6z M15.5,25l4.2,6.8c0.1-0.3,0.1-0.6,0.2-0.9l-4.4-7.1V25z M15.5,27l4,5.7
					c0.1-0.2,0.2-0.5,0.2-0.8l-4.2-6V27z"/>
				<path class="st0" d="M30,29.4l7.3-1.9c0.4-0.3,0.7-0.6,1-0.9l-9.7,2.5C29.1,29.3,29.5,29.4,30,29.4z M28.4,29.1l10.9-3.5
					c0.2-0.3,0.4-0.5,0.5-0.8l-12.4,4C27.8,28.9,28.1,29,28.4,29.1z M32.2,25L26,27.9c0.2,0.1,0.4,0.3,0.6,0.4L41,21.5
					c0-0.2,0.1-0.5,0.1-0.7l-6.2,2.9C34.2,24.4,33.2,24.8,32.2,25z M36,22.4l5.2-2.9c0-0.2,0-0.5,0-0.7l-4.7,2.6
					C36.3,21.8,36.2,22.1,36,22.4z M36.7,19.7c0,0.2,0,0.5,0,0.7l4.3-2.7c0-0.2-0.1-0.4-0.2-0.6L36.7,19.7
					C36.7,19.6,36.7,19.7,36.7,19.7z M35.2,15.9l3.3-3.1c-0.1-0.1-0.3-0.3-0.4-0.4l-3.3,3.1C34.9,15.6,35,15.8,35.2,15.9z M31.1,9.8
					l-8.8,13.8c0.1,0.2,0.2,0.4,0.3,0.7L26,19c0.2-1.6,1.1-3,2.4-3.8l3.4-5.3c-0.2,0-0.3,0-0.5,0C31.3,9.8,31.2,9.8,31.1,9.8z
					 M30.1,24.9l-4.6,2.5l4.1-2.6c-0.2-0.1-0.5-0.2-0.7-0.3l-3.8,2.4l3.5-2.5c-0.2-0.1-0.4-0.2-0.6-0.4l-3.3,2.4l3.1-2.6
					c-0.2-0.1-0.3-0.3-0.5-0.4l-3,2.5l2.9-2.7c-0.1-0.2-0.3-0.3-0.4-0.5l-2.9,2.7l2.8-2.9c-0.1-0.2-0.2-0.4-0.3-0.6l-2.9,3.1
					l2.8-3.3c-0.1-0.2-0.2-0.4-0.2-0.7l-3,3.6l2.9-4C26,20.3,26,20,26,19.7l-3.3,4.6c0.8,1.5,1.9,2.7,3.3,3.6l5.2-2.9
					C30.8,25,30.5,25,30.1,24.9z M31.4,29.5c1.5,0,3-0.3,4.2-1l-4.9,0.9C30.9,29.5,31.2,29.5,31.4,29.5z M27.4,28.7l13.1-5.2
					c0.1-0.3,0.2-0.5,0.3-0.8l-14.1,5.6C26.9,28.5,27.1,28.6,27.4,28.7z M24.8,12.4l-3.2,8.1c0,0.4,0.1,0.8,0.2,1.2l4-10.1
					C25.4,11.9,25.1,12.1,24.8,12.4z M29.1,10.1l-7,12.8c0.1,0.3,0.2,0.5,0.3,0.8L29.9,10C29.6,10,29.3,10,29.1,10.1z M26.9,10.9
					l-5.2,11c0.1,0.3,0.2,0.6,0.3,0.9l5.8-12.3C27.5,10.6,27.2,10.7,26.9,10.9z M21.5,19.7c0,0.1,0,0.2,0,0.3l2-6.3
					C22.3,15.3,21.5,17.4,21.5,19.7z M32.4,14.4l3-3.7c-0.2-0.1-0.4-0.2-0.6-0.2l-3.2,3.8C32,14.3,32.2,14.4,32.4,14.4z M34,15
					l3.1-3.3c-0.2-0.1-0.3-0.2-0.5-0.3l-3.2,3.4C33.6,14.8,33.8,14.9,34,15z M30.7,14.4l3.1-4.2c-0.2-0.1-0.4-0.1-0.7-0.1l-3.3,4.6
					C30,14.5,30.3,14.4,30.7,14.4z M36.1,17.1l3.5-2.9c-0.1-0.2-0.2-0.3-0.4-0.5l-3.5,2.9C35.9,16.8,36,17,36.1,17.1z M36.6,18.6
					l3.8-2.8c-0.1-0.2-0.2-0.4-0.3-0.6L36.5,18C36.5,18.2,36.6,18.4,36.6,18.6z"/>
				<path class="st0" d="M36.7,15.5l4.5,5.6v-1l-4.5-5.6V15.5z M36.7,17.7l4.5,5v-0.9l-4.5-5V17.7z M36.7,13l4.5,6.4v-1.1l-4.5-6.4
					V13z M36.7,29.5h1.1l-1.1-0.4V29.5z M38.7,9.9l2.5,4.8v-1.3l-1.9-3.5H38.7z M36.7,19.6l4.5,4.4v-0.9l-4.5-4.4V19.6z M36.7,9.9
					L36.7,9.9l4.5,7.4v-1.2l-3.8-6.2H36.7z M41.2,9.9h-0.7l0.7,1.5L41.2,9.9L41.2,9.9z M36.7,21.3l4.5,3.9v-0.8l-4.5-3.9V21.3z
					 M36.7,28.9l1.6,0.6h1.8l-3.4-1.2V28.9z M36.7,26.7l4.5,2.3v-0.7l-4.5-2.3V26.7z M36.7,27.9l3.8,1.7h0.7v-0.4l-4.5-2V27.9z
					 M36.7,25.6l4.5,2.7v-0.7l-4.5-2.7V25.6z M36.7,22.9l4.5,3.5v-0.8l-4.5-3.5V22.9z M36.7,24.3l4.5,3v-0.7l-4.5-3V24.3z"/>
				<path class="st0" d="M54.7,9.9l-7.3,1.9c-0.4,0.3-0.7,0.6-1,0.9l9.7-2.5C55.6,10.1,55.2,10,54.7,9.9z M56.3,10.3l-10.9,3.5
					c-0.2,0.3-0.4,0.5-0.5,0.8l12.4-4C56.9,10.5,56.6,10.4,56.3,10.3z M52.5,14.4l6.2-2.9c-0.2-0.1-0.4-0.3-0.6-0.4l-14.4,6.8
					c0,0.2-0.1,0.5-0.1,0.7l6.2-2.9C50.5,15,51.5,14.5,52.5,14.4z M48.7,17l-5.2,2.9c0,0.2,0,0.5,0,0.7l4.7-2.6
					C48.4,17.6,48.5,17.3,48.7,17z M47.9,19.7c0-0.2,0-0.5,0-0.7l-4.3,2.7c0,0.2,0.1,0.4,0.2,0.6L47.9,19.7
					C47.9,19.7,47.9,19.7,47.9,19.7z M49.5,23.5l-3.3,3.1c0.1,0.1,0.3,0.3,0.4,0.4l3.3-3.1C49.8,23.7,49.7,23.6,49.5,23.5z
					 M53.6,29.5l8.8-13.8c-0.1-0.2-0.2-0.4-0.3-0.6l-3.4,5.3c-0.2,1.6-1.1,3-2.4,3.8l-3.4,5.3c0.2,0,0.3,0,0.5,0
					C53.4,29.5,53.5,29.5,53.6,29.5z M54.5,14.4l4.6-2.5L55,14.6c0.2,0.1,0.5,0.2,0.7,0.3l3.8-2.4L55.9,15c0.2,0.1,0.4,0.2,0.6,0.4
					l3.3-2.4l-3.1,2.6c0.2,0.1,0.3,0.3,0.5,0.4l3-2.5l-2.9,2.7c0.1,0.2,0.3,0.3,0.4,0.5l2.9-2.7l-2.8,2.9c0.1,0.2,0.2,0.4,0.3,0.6
					l2.9-3.1l-2.8,3.3c0.1,0.2,0.2,0.5,0.2,0.7l3-3.6l-2.9,4c0.1,0.3,0.1,0.6,0.1,0.9l3.3-4.6c-0.8-1.5-1.9-2.7-3.3-3.6l-5.2,2.9
					C53.9,14.3,54.2,14.4,54.5,14.4z M53.3,9.8c-1.5,0-3,0.3-4.2,1L54,9.9C53.8,9.8,53.5,9.8,53.3,9.8z M57.3,10.7l-13.1,5.2
					c-0.1,0.3-0.2,0.5-0.3,0.8L58.1,11C57.8,10.9,57.6,10.8,57.3,10.7z M59.9,27l3.2-8.1c0-0.4-0.1-0.8-0.2-1.2l-4,10.1
					C59.3,27.5,59.6,27.3,59.9,27z M55.6,29.3l7-12.8c-0.1-0.3-0.2-0.5-0.3-0.7l-7.5,13.7C55.1,29.4,55.4,29.3,55.6,29.3z
					 M57.7,28.5l5.2-11c-0.1-0.3-0.2-0.6-0.3-0.9l-5.8,12.3C57.2,28.7,57.5,28.6,57.7,28.5z M63.2,19.7c0-0.1,0-0.2,0-0.3l-2,6.3
					C62.4,24,63.2,21.9,63.2,19.7z M52.3,25l-3,3.7c0.2,0.1,0.4,0.2,0.6,0.2L53,25C52.7,25,52.5,25,52.3,25z M50.7,24.4l-3.1,3.3
					c0.2,0.1,0.3,0.2,0.5,0.3l3.2-3.4C51.1,24.6,50.9,24.5,50.7,24.4z M54,25L51,29.2c0.2,0.1,0.4,0.1,0.7,0.1l3.3-4.6
					C54.7,24.9,54.4,25,54,25z M48.6,22.2l-3.5,2.9c0.1,0.2,0.2,0.3,0.4,0.5l3.5-2.9C48.8,22.6,48.7,22.4,48.6,22.2z M48.1,20.7
					l-3.8,2.8c0.1,0.2,0.2,0.4,0.3,0.6l3.7-2.7C48.2,21.2,48.1,21,48.1,20.7z"/>
				<path class="st0" d="M43.5,23.5l2,6.1h0.6l-2.6-8V23.5z M43.5,19l4.1,10.5H48v-0.9l-4.5-11.3V19z M48,0.1h-4.5v5.4L48,9.2V8.4
					l-4.5-3.7L48,7.9V7.2l-4.1-3L48,6.8V6.1l-3.8-2.4L48,5.8V5.1l-3.5-1.9L48,4.8V4.1l-3.2-1.5L48,3.9V3.2L45,2l3,1V2.3l-2.8-0.9
					L48,2.1V1.5l-2.6-0.7L48,1.3V0.7l-2.5-0.5L48,0.5V0.1z M43.5,29.5h0.8l-0.8-2.3V29.5z M43.5,15.8l4.5,9.5v-1.4l-4.5-9.5V15.8z
					 M43.5,8.5l4.5,5.4v-1l-4.5-5.4V8.5z M43.5,6.4l4.5,4.2V9.7l-4.5-4.2V6.4z M43.5,7.4l4.5,4.8v-0.9l-4.5-4.8V7.4z M43.5,11.4
					l4.5,7v-1.1l-4.5-7V11.4z M43.5,9.9L48,16v-1l-4.5-6.2V9.9z M43.5,13.4l4.5,8.1v-1.3l-4.5-8.1V13.4z"/>
				<path class="st0" d="M71.4,18.3l1.9,7.3c0.3,0.4,0.6,0.7,0.9,1L71.6,17C71.5,17.4,71.4,17.8,71.4,18.3z M71.7,16.7l3.5,10.9
					c0.3,0.2,0.5,0.4,0.8,0.5l-4-12.4C71.9,16.1,71.8,16.4,71.7,16.7z M75.8,20.5l-2.9-6.2c-0.1,0.2-0.3,0.4-0.4,0.6l6.8,14.4
					c0.2,0,0.5,0.1,0.7,0.1l-2.9-6.2C76.4,22.5,76,21.5,75.8,20.5z M78.4,24.3l2.9,5.2c0.2,0,0.5,0,0.7,0l-2.6-4.7
					C79,24.6,78.7,24.5,78.4,24.3z M81.1,25.1c-0.2,0-0.5,0-0.7,0l2.7,4.3c0.2,0,0.4-0.1,0.6-0.2L81.1,25.1
					C81.2,25.1,81.1,25.1,81.1,25.1z M84.9,23.5l3.1,3.3c0.1-0.1,0.3-0.3,0.4-0.4L85.3,23C85.2,23.2,85,23.4,84.9,23.5z M90.9,19.4
					l-13.8-8.8c-0.2,0.1-0.4,0.2-0.7,0.3l5.3,3.4c1.6,0.2,3,1.1,3.8,2.4l5.3,3.4c0-0.2,0-0.3,0-0.5C91,19.6,90.9,19.5,90.9,19.4z
					 M75.9,18.5l-2.5-4.6L76,18c0.1-0.2,0.2-0.5,0.3-0.7l-2.4-3.8l2.5,3.5c0.1-0.2,0.2-0.4,0.4-0.6l-2.4-3.3l2.6,3.1
					c0.1-0.2,0.3-0.3,0.4-0.5l-2.5-3l2.7,2.9c0.2-0.1,0.3-0.3,0.5-0.4l-2.7-2.9l2.9,2.8c0.2-0.1,0.4-0.2,0.6-0.3L75.7,12l3.3,2.8
					c0.2-0.1,0.5-0.2,0.7-0.2l-3.6-3l4,2.9c0.3-0.1,0.6-0.1,0.9-0.1L76.5,11c-1.5,0.8-2.7,1.9-3.6,3.3l2.9,5.2
					C75.7,19.1,75.8,18.8,75.9,18.5z M71.3,19.7c0,1.5,0.3,2.9,1,4.2L71.3,19C71.3,19.3,71.3,19.5,71.3,19.7z M72.1,15.7l5.2,13.1
					c0.3,0.1,0.5,0.2,0.8,0.3L72.5,15C72.3,15.2,72.2,15.5,72.1,15.7z M88.4,13.1l-8.1-3.2c-0.4,0-0.8,0.1-1.2,0.2l10.1,4
					C88.9,13.7,88.7,13.4,88.4,13.1z M90.7,17.4l-12.8-7c-0.3,0.1-0.5,0.2-0.7,0.3l13.7,7.5C90.8,17.9,90.7,17.6,90.7,17.4z
					 M89.9,15.3l-11-5.2c-0.3,0.1-0.6,0.2-0.9,0.3l12.3,5.8C90.2,15.8,90,15.5,89.9,15.3z M81.1,9.8c-0.1,0-0.2,0-0.3,0l6.3,2
					C85.4,10.6,83.4,9.8,81.1,9.8z M86.4,20.8l3.7,3c0.1-0.2,0.2-0.4,0.3-0.6L86.5,20C86.5,20.3,86.4,20.5,86.4,20.8z M85.8,22.3
					l3.3,3.1c0.1-0.2,0.2-0.3,0.3-0.5l-3.4-3.2C86,21.9,85.9,22.1,85.8,22.3z M86.4,19l4.2,3.1c0.1-0.2,0.1-0.4,0.1-0.7l-4.6-3.3
					C86.3,18.4,86.4,18.7,86.4,19z M83.7,24.4l2.9,3.5c0.2-0.1,0.3-0.2,0.5-0.4l-2.9-3.5C84,24.2,83.8,24.3,83.7,24.4z M82.2,25
					l2.8,3.8c0.2-0.1,0.4-0.2,0.6-0.3l-2.7-3.7C82.6,24.9,82.4,24.9,82.2,25z"/>
				<path class="st0" d="M91,29.5L91,29.5l-4.5-17.2V15l3.8,14.6H91z M91,9.7h-0.6l0.6,0.7V9.7z M91,23.5l-4.4-13.2L91,21.1v-1.8
					L87.2,10l3.8,7.9v-1.6l-3.2-6.6l3.2,5.7V14l-2.4-4.3h-2.1v2.3L91,25.6V23.5z M86.4,29.5h0.7l-0.7-5.2v5.1L86.4,29.5z M91,10.6
					l-0.7-0.9h-0.8l1.5,2.1V10.6z M91,12.1l-1.6-2.5h-0.8l2.4,3.7V12.1z M89,29.5l-2.6-13.1v3.5l1.9,9.6H89z"/>
				<path class="st0" d="M65,9.7L65,9.7l4.5,17.2v-2.6L65.7,9.7H65z M65,29.5h0.6L65,28.8V29.5z M65,15.7L69.4,29L65,18.1v1.8
					l3.8,9.3L65,21.3v1.6l3.2,6.6L65,23.8v1.4l2.4,4.3h2.1v-2.3L65,13.6V15.7z M69.5,9.7h-0.8l0.8,5.3V9.8L69.5,9.7z M65,28.6
					l0.7,0.9h0.8L65,27.5V28.6z M65,27.1l1.6,2.5h0.8L65,25.8V27.1z M66.9,9.7l2.6,13.1v-3.5l-1.9-9.6H66.9z"/>
				<path class="st0" d="M65,9.7L65,9.7l4.5,17.2v-2.6L65.7,9.7H65z M65,29.5h0.6L65,28.8V29.5z M65,15.7L69.4,29L65,18.1v1.8
					l3.8,9.3L65,21.3v1.6l3.2,6.6L65,23.8v1.4l2.4,4.3h2.1v-2.3L65,13.6V15.7z M69.5,9.7h-0.8l0.8,5.3V9.8L69.5,9.7z M65,28.6
					l0.7,0.9h0.8L65,27.5V28.6z M65,27.1l1.6,2.5h0.8L65,25.8V27.1z M66.9,9.7l2.6,13.1v-3.5l-1.9-9.6H66.9z"/>
				<path class="st0" d="M97.2,29.5c0.8,0,1.4-0.3,2-0.8c0.5-0.5,0.8-1.2,0.8-2c0-0.8-0.3-1.4-0.8-1.9c-0.5-0.5-1.2-0.8-2-0.8
					c-0.4,0-0.7,0.1-1.1,0.2l2.2,0.7l-2.5-0.6c-0.2,0.1-0.4,0.3-0.6,0.5c0,0,0,0,0,0.1l3,0.7L95,25.1c-0.1,0.2-0.3,0.4-0.4,0.6
					l3.5,0.5l-3.6-0.2c-0.1,0.2-0.1,0.4-0.1,0.6l3.7,0.2l-3.7,0c0,0.2,0,0.4,0.1,0.6l3.6,0l-3.5,0.3c0.1,0.2,0.2,0.4,0.3,0.6
					l3.3-0.3L95,28.5c0.1,0.1,0.1,0.1,0.2,0.2c0.1,0.1,0.3,0.3,0.4,0.4l2.6-0.4l-2.3,0.6C96.3,29.4,96.7,29.5,97.2,29.5z"/>
			</g>
			<path id="패스_537_00000078730972997217058970000017323662040668115109_" class="st0" d="M139.1,12.2c-1.7-1.6-3.9-2.4-6.3-2.3
				c-1.7,0-3.4,0.4-4.7,1.7V9.7h-4v19.6h4.3V18.1c0-1.1,0.5-2.3,1.3-3.1c1.8-1.7,4.5-1.7,6.2,0c0.8,0.7,1.3,2,1.3,3.1v11.1h4.2V18.1
				C141.5,15.9,140.8,13.7,139.1,12.2z"/>
		</g>
	</g>
	<path class="st0" d="M158.8,20.7c-2.2-2-5.3-2.1-8-3.1c-1.1-0.4-2.9-1.5-2-2.9c0.6-1,2-1.2,3-1.2c2,0,3.3,0.9,3.3,2.3v0.3h4.7v-0.3
		c0-3.6-3.1-6.2-8-6.2c-4.7,0-7.9,2.1-7.9,6.1c0,0.2,0,0.4,0,0.5c0.3,2.8,2.7,3.9,5.4,4.7c0.9,0.3,1.9,0.4,2.8,0.7
		c1.2,0.2,3.5,0.8,3.7,2.1c0.2,1.4-1.1,2.5-3.7,2.4c-2,0-3.7-1-3.8-2.3c0-0.2-0.1-0.4-0.1-0.6l0-0.4h-4.7v0.4c0,3.8,3.6,6.4,8.8,6.4
		c0.7,0,1.4,0,2-0.1c2.2-0.3,4.4-1.2,5.4-3.3C160.7,24.3,160.3,22.1,158.8,20.7z"/>
</g>
</svg>
