<svg width="242" height="26" viewBox="0 0 242 26" fill="none" xmlns="http://www.w3.org/2000/svg">
<path d="M104.877 6.87061C103.86 6.87061 102.939 7.26278 102.243 7.90132C101.549 7.26529 100.625 6.87061 99.6085 6.87061C97.461 6.87061 95.7148 8.61024 95.7148 10.7521V19.0129H98.2382V10.7521C98.2382 9.99793 98.854 9.38454 99.6085 9.38454C100.363 9.38454 100.981 9.99793 100.981 10.7521V19.0129H103.505V10.7521C103.505 9.99793 104.12 9.38454 104.877 9.38454C105.634 9.38454 106.248 9.99793 106.248 10.7521V19.0003H108.771V10.7521C108.771 8.61276 107.025 6.87061 104.877 6.87061Z" fill="#0063FD"/>
<path d="M119.862 6.87061C118.845 6.87061 117.924 7.26278 117.227 7.90132C116.533 7.26529 115.61 6.87061 114.593 6.87061C112.445 6.87061 110.699 8.61024 110.699 10.7521V19.0129H113.223V10.7521C113.223 9.99793 113.838 9.38454 114.593 9.38454C115.347 9.38454 115.966 9.99793 115.966 10.7521V19.0129H118.489V10.7521C118.489 9.99793 119.105 9.38454 119.862 9.38454C120.619 9.38454 121.232 9.99793 121.232 10.7521V19.0003H123.755V10.7521C123.755 8.61276 122.009 6.87061 119.862 6.87061Z" fill="#0063FD"/>
<path d="M88.1371 6.84058C84.733 6.84058 81.9648 9.59836 81.9648 12.9896C81.9648 16.3809 84.733 19.1387 88.1371 19.1387C91.5412 19.1387 94.3093 16.3809 94.3093 12.9896C94.3093 9.59836 91.5412 6.84058 88.1371 6.84058ZM88.1371 16.6273C86.1234 16.6273 84.4882 14.9958 84.4882 12.9922C84.4882 10.9886 86.1259 9.35702 88.1371 9.35702C90.1482 9.35702 91.7859 10.9886 91.7859 12.9922C91.7859 14.9958 90.1482 16.6273 88.1371 16.6273Z" fill="#0063FD"/>
<path d="M74.7742 9.35463C76.1595 9.35463 77.3607 10.1717 77.9461 11.3557H80.6335C79.9244 8.75631 77.5651 6.8407 74.7742 6.8407C71.4206 6.8407 68.6953 9.59848 68.6953 12.9898C68.6953 16.3811 71.4231 19.1388 74.7742 19.1388C77.5676 19.1388 79.9244 17.2232 80.6335 14.6238H77.9461C77.3607 15.8104 76.1595 16.6249 74.7742 16.6249C72.8135 16.6249 71.2187 14.9934 71.2187 12.9898C71.2187 10.9862 72.8135 9.35463 74.7742 9.35463Z" fill="#0063FD"/>
<path d="M150.178 9.35451C151.564 9.35451 152.765 10.1715 153.35 11.3556H156.038C155.329 8.75619 152.969 6.84058 150.178 6.84058C146.825 6.84058 144.1 9.59836 144.1 12.9896C144.1 16.3809 146.827 19.1387 150.178 19.1387C152.972 19.1387 155.329 17.2231 156.038 14.6237H153.35C152.765 15.8103 151.564 16.6248 150.178 16.6248C148.218 16.6248 146.623 14.9932 146.623 12.9896C146.623 10.986 148.218 9.35451 150.178 9.35451Z" fill="#0063FD"/>
<path d="M131.243 6.84058C127.889 6.84058 125.164 9.59836 125.164 12.9896C125.164 16.3809 127.892 19.1387 131.243 19.1387C133.754 19.1387 135.914 17.5901 136.84 15.3879H133.935C133.277 16.1446 132.315 16.6248 131.24 16.6248C129.648 16.6248 128.298 15.5715 127.826 14.1209H137.216C137.284 13.7539 137.322 13.3768 137.322 12.9896C137.322 9.59836 134.594 6.84058 131.243 6.84058ZM127.829 11.8584C128.301 10.4053 129.651 9.35451 131.243 9.35451C132.835 9.35451 134.185 10.4078 134.657 11.8584H127.829Z" fill="#0063FD"/>
<path d="M169.498 12.9896C169.498 9.59836 166.77 6.84058 163.419 6.84058C160.068 6.84058 157.34 9.59836 157.34 12.9896C157.34 16.3809 160.068 19.1387 163.419 19.1387C165.93 19.1387 168.09 17.5901 169.016 15.3879H166.111C165.453 16.1446 164.491 16.6248 163.416 16.6248C161.824 16.6248 160.474 15.5715 160.002 14.1209H169.392C169.46 13.7539 169.498 13.3768 169.498 12.9896ZM160.005 11.8584C160.476 10.4053 161.826 9.35451 163.419 9.35451C165.011 9.35451 166.361 10.4078 166.833 11.8584H160.005Z" fill="#0063FD"/>
<path d="M138.766 10.6093V19.0134H141.289V10.5163C141.289 9.80485 141.867 9.22916 142.581 9.22916H143.57V6.97668H142.412C140.398 6.97668 138.766 8.6032 138.766 10.6093Z" fill="#0063FD"/>
<path d="M11.849 8.03481C10.827 7.28566 9.56279 6.8407 8.20015 6.8407C4.79356 6.8407 2.02539 9.60099 2.02539 12.9898C2.02539 16.3785 4.79356 19.1388 8.19763 19.1388C9.56279 19.1388 10.8245 18.6939 11.8465 17.9447V18.6436C11.8465 20.5391 10.2996 22.0801 8.39698 22.0801V24.5941C11.69 24.5941 14.3699 21.9243 14.3699 18.6436V6.97394H11.8465V8.03481H11.849ZM8.20015 16.6274C6.18648 16.6274 4.55132 14.9959 4.55132 12.9923C4.55132 10.9887 6.189 9.35714 8.20015 9.35714C10.2113 9.35714 11.849 10.9887 11.849 12.9923C11.849 14.9959 10.2113 16.6274 8.20015 16.6274Z" fill="#0042CF"/>
<path d="M25.6062 8.03481C24.5843 7.28566 23.32 6.8407 21.9574 6.8407C18.5533 6.8407 15.7852 9.59848 15.7852 12.9898C15.7852 16.3811 18.5533 19.1388 21.9574 19.1388C23.3226 19.1388 24.5843 18.6939 25.6062 17.9447V19.0106H28.1296V6.97394H25.6062V8.03481ZM21.9574 16.6274C19.9437 16.6274 18.3086 14.9959 18.3086 12.9923C18.3086 10.9887 19.9462 9.35714 21.9574 9.35714C23.9685 9.35714 25.6062 10.9887 25.6062 12.9923C25.6062 14.9959 23.9685 16.6274 21.9574 16.6274Z" fill="#0042CF"/>
<path d="M36.2172 6.83952C34.852 6.83952 33.5903 7.28448 32.5683 8.03363V1.43457H30.0449V19.012H32.5683V17.9461C33.5903 18.6952 34.8545 19.1402 36.2172 19.1402C39.6212 19.1402 42.3894 16.3824 42.3894 12.9911C42.3894 9.59981 39.6212 6.84203 36.2172 6.84203V6.83952ZM36.2172 16.6262C34.2035 16.6262 32.5683 14.9947 32.5683 12.9911C32.5683 10.9875 34.206 9.35596 36.2172 9.35596C38.2283 9.35596 39.866 10.9875 39.866 12.9911C39.866 14.9947 38.2283 16.6262 36.2172 16.6262Z" fill="#0042CF"/>
<path d="M46.332 6.9729H43.8086V19.0096H46.332V6.9729Z" fill="#0042CF"/>
<path d="M57.5769 8.03481C56.555 7.28566 55.2907 6.8407 53.9281 6.8407C50.524 6.8407 47.7559 9.59848 47.7559 12.9898C47.7559 16.3811 50.524 19.1388 53.9281 19.1388C55.2933 19.1388 56.555 18.6939 57.5769 17.9447V19.0106H60.1003V6.97394H57.5769V8.03481ZM53.9281 16.6274C51.9144 16.6274 50.2793 14.9959 50.2793 12.9923C50.2793 10.9887 51.917 9.35714 53.9281 9.35714C55.9393 9.35714 57.5769 10.9887 57.5769 12.9923C57.5769 14.9959 55.9393 16.6274 53.9281 16.6274Z" fill="#0042CF"/>
<path d="M64.1934 16.0634C63.2042 16.0634 62.4043 16.8628 62.4043 17.8457C62.4043 18.8287 63.2067 19.6281 64.1934 19.6281C65.18 19.6281 65.9825 18.8312 65.9825 17.8457C65.9825 16.8603 65.18 16.0634 64.1934 16.0634Z" fill="#0042CF"/>
<path d="M207.775 6.70117C206.728 6.70117 205.78 7.10484 205.063 7.76209C204.349 7.10742 203.398 6.70117 202.351 6.70117C200.141 6.70117 198.344 8.49179 198.344 10.6964V19.1993H200.941V10.6964C200.941 9.92015 201.575 9.28877 202.351 9.28877C203.128 9.28877 203.764 9.92015 203.764 10.6964V19.1993H206.362V10.6964C206.362 9.92015 206.996 9.28877 207.775 9.28877C208.554 9.28877 209.185 9.92015 209.185 10.6964V19.1863H211.782V10.6964C211.782 8.49438 209.985 6.70117 207.775 6.70117Z" fill="#0063FD"/>
<path d="M219.974 6.67078C216.47 6.67078 213.621 9.50937 213.621 13C213.621 16.4907 216.47 19.3293 219.974 19.3293C223.478 19.3293 226.327 16.4907 226.327 13C226.327 9.50937 223.478 6.67078 219.974 6.67078ZM219.974 16.7443C217.902 16.7443 216.218 15.0649 216.218 13.0026C216.218 10.9403 217.904 9.26096 219.974 9.26096C222.044 9.26096 223.73 10.9403 223.73 13.0026C223.73 15.0649 222.044 16.7443 219.974 16.7443Z" fill="#0063FD"/>
<path d="M238.05 7.89976C236.998 7.12866 235.697 6.67065 234.295 6.67065C230.791 6.67065 227.941 9.50925 227.941 12.9999C227.941 16.4906 230.791 19.3292 234.295 19.3292C235.7 19.3292 236.998 18.8712 238.05 18.1001V19.1972H240.648V6.8078H238.05V7.89976ZM234.295 16.7442C232.222 16.7442 230.539 15.0648 230.539 13.0025C230.539 10.9402 232.224 9.26084 234.295 9.26084C236.365 9.26084 238.05 10.9402 238.05 13.0025C238.05 15.0648 236.365 16.7442 234.295 16.7442Z" fill="#0063FD"/>
<rect x="183.746" y="7" width="1" height="12" fill="#D3D3D3"/>
</svg>
