<svg width="24" height="24" viewBox="0 0 24 24" fill="none" xmlns="http://www.w3.org/2000/svg">
<mask id="path-1-inside-1_5844_13163" fill="white">
<path fill-rule="evenodd" clip-rule="evenodd" d="M8.78622 3C7.63028 3 6.66241 3.87592 6.54739 5.02612L6.525 5.25H4.5C2.84315 5.25 1.5 6.59315 1.5 8.25V17.25C1.5 18.9069 2.84315 20.25 4.5 20.25H19.5C21.1569 20.25 22.5 18.9069 22.5 17.25V8.25C22.5 6.59315 21.1569 5.25 19.5 5.25H17.475L17.4526 5.02612C17.3376 3.87591 16.3697 3 15.2138 3H8.78622Z"/>
</mask>
<path d="M6.54739 5.02612L5.05483 4.87686V4.87686L6.54739 5.02612ZM6.525 5.25V6.75H7.88248L8.01756 5.39926L6.525 5.25ZM17.475 5.25L15.9824 5.39926L16.1175 6.75H17.475V5.25ZM17.4526 5.02612L15.9601 5.17537V5.17537L17.4526 5.02612ZM8.03994 5.17537C8.07828 4.79197 8.40091 4.5 8.78622 4.5V1.5C6.85965 1.5 5.24653 2.95986 5.05483 4.87686L8.03994 5.17537ZM8.01756 5.39926L8.03994 5.17537L5.05483 4.87686L5.03244 5.10074L8.01756 5.39926ZM4.5 6.75H6.525V3.75H4.5V6.75ZM3 8.25C3 7.42157 3.67157 6.75 4.5 6.75V3.75C2.01472 3.75 0 5.76472 0 8.25H3ZM3 17.25V8.25H0V17.25H3ZM4.5 18.75C3.67157 18.75 3 18.0784 3 17.25H0C0 19.7353 2.01472 21.75 4.5 21.75V18.75ZM19.5 18.75H4.5V21.75H19.5V18.75ZM21 17.25C21 18.0784 20.3284 18.75 19.5 18.75V21.75C21.9853 21.75 24 19.7353 24 17.25H21ZM21 8.25V17.25H24V8.25H21ZM19.5 6.75C20.3284 6.75 21 7.42157 21 8.25H24C24 5.76472 21.9853 3.75 19.5 3.75V6.75ZM17.475 6.75H19.5V3.75H17.475V6.75ZM15.9601 5.17537L15.9824 5.39926L18.9676 5.10074L18.9452 4.87686L15.9601 5.17537ZM15.2138 4.5C15.5991 4.5 15.9217 4.79197 15.9601 5.17537L18.9452 4.87686C18.7535 2.95985 17.1403 1.5 15.2138 1.5V4.5ZM8.78622 4.5H15.2138V1.5H8.78622V4.5Z" fill="black" mask="url(#path-1-inside-1_5844_13163)"/>
<path d="M14.75 12.25C14.75 13.9069 13.4069 15.25 11.75 15.25C10.0931 15.25 8.75 13.9069 8.75 12.25C8.75 10.5931 10.0931 9.25 11.75 9.25C13.4069 9.25 14.75 10.5931 14.75 12.25Z" stroke="black" stroke-width="1.5"/>
</svg>
