<?xml version="1.0" encoding="UTF-8"?><svg id="_레이어_2" xmlns="http://www.w3.org/2000/svg" viewBox="0 0 47.96 21.42"><defs><style>.cls-1{fill:#fff;}.cls-2{fill:#f5c813;}</style></defs><g id="Layer_1"><g><path class="cls-1" d="M37.29,20.22h-3.53l-1.29-4.82h-5.67l-1.29,4.82h-3.51L27.75,0h3.77l5.78,20.22Zm-9.7-7.81h4.1l-2.04-7.71-2.06,7.71Z"/><path class="cls-1" d="M33.68,0h6.77c5.34,0,7.5,2.27,7.5,7.09v6.06c0,4.8-2.3,7.07-7.5,7.07h-1.02l-.92-2.99h1.81c2.91,0,4.07-1.13,4.07-4.15V7.14c0-3.02-1.16-4.15-4.07-4.15h-5.77l-.88-2.99Z"/></g><g><path class="cls-1" d="M13.13,13.13c0,4.82-2.17,7.09-7.5,7.09H.95c-.65,0-.95-.31-.95-.95V.98C0,.34,.31,0,.95,0H5.62c5.21,0,7.5,2.27,7.5,7.07v6.06Zm-3.56-5.98c0-3.02-1.16-4.15-4.07-4.15h-1.93v14.23h1.93c2.91,0,4.07-1.13,4.07-4.15V7.14Z"/><rect class="cls-1" x="16.49" y="0" width="3.53" height="15.5"/><circle class="cls-2" cx="18.2" cy="19.12" r="2.3"/></g></g></svg>