<svg width="80" height="80" viewBox="0 0 80 80" fill="none" xmlns="http://www.w3.org/2000/svg">
<g clip-path="url(#clip0_1630_4373)">
<path d="M26.0453 8H58.2912C59.588 8 60.6484 9.07057 60.6484 10.3797V63.7683C60.6484 65.0775 59.588 66.1538 58.2912 66.1538H14.3572C13.0605 66.1538 12 65.0833 12 63.7683V22.1792L26.0453 8Z" fill="#3C4A57"/>
<path d="M26.0453 20.3231C26.0453 21.3413 25.2211 22.1792 24.2068 22.1792H12L26.0453 8V20.3231Z" fill="#ABB1BF"/>
<g clip-path="url(#clip1_1630_4373)">
<path d="M49.6371 39.0618C48.9888 39.0582 48.3369 39.0509 47.6887 39.0509C46.6586 39.0509 45.6286 39.0509 44.595 39.0509C44.4761 39.0509 44.3573 39.0837 44.3393 38.8867C44.242 37.8398 44.1808 36.7855 44.0151 35.7494C43.8531 34.7134 43.583 33.6956 43.3633 32.6887C44.4077 32.2145 45.4845 31.7257 46.5866 31.2259C47.2637 32.043 47.8507 32.966 48.3297 33.9655C49.0212 35.4175 49.4462 36.9423 49.5938 38.5475C49.5974 38.5985 49.6226 38.646 49.6371 38.6934V39.0618Z" fill="#D8DBE1"/>
<path d="M49.6373 40.9588C49.5509 41.5024 49.4824 42.0496 49.3744 42.5895C48.935 44.7601 48.0022 46.6935 46.6229 48.4081C46.6013 48.4336 46.5869 48.4701 46.5977 48.4482C45.492 47.9448 44.4224 47.4596 43.3203 46.9598C43.9398 44.9388 44.2819 42.823 44.3539 40.6524C44.4332 40.6414 44.4908 40.6305 44.5484 40.6305C46.2015 40.6305 47.8546 40.6305 49.5076 40.6305C49.5509 40.6305 49.5941 40.6378 49.6373 40.6414V40.9588Z" fill="#D8DBE1"/>
<path d="M23.0156 39.0363C23.2173 36.0668 24.2437 33.4621 26.0661 31.2222C27.1681 31.722 28.2378 32.2072 29.3326 32.707C29.2498 33.0061 29.1489 33.349 29.0589 33.6919C28.6303 35.3591 28.3746 37.0554 28.317 38.7773C28.3098 38.9378 28.3062 39.0545 28.0865 39.0545C26.4514 39.0472 24.8128 39.0509 23.1777 39.0472C23.1345 39.0472 23.0949 39.04 23.0192 39.0327L23.0156 39.0363Z" fill="#D8DBE1"/>
<path d="M23.0385 40.6414H28.3003C28.3759 42.8084 28.7072 44.9206 29.3375 46.9598C28.2498 47.4523 27.173 47.9411 26.0782 48.4409C24.5511 46.9562 22.9521 42.8923 23.0385 40.6414Z" fill="#D8DBE1"/>
<path d="M30.8363 33.1849C32.4173 33.4147 33.9696 33.6445 35.5398 33.8743V39.0326H29.8711C29.9323 37.0116 30.2637 35.049 30.8363 33.1849Z" fill="#D8DBE1"/>
<path d="M41.8213 33.1885C42.394 35.0417 42.7181 37.0007 42.7865 39.029H37.125V33.8707C38.688 33.6445 40.2367 33.4183 41.8213 33.1885Z" fill="#D8DBE1"/>
<path d="M29.8672 40.6414H35.5323V45.8034C33.9837 46.0296 32.4314 46.2521 30.8396 46.4819C30.2633 44.6324 29.9428 42.6734 29.8708 40.6414H29.8672Z" fill="#D8DBE1"/>
<path d="M41.8246 46.4819C40.2328 46.2521 38.6877 46.0296 37.1211 45.7997V40.6451H42.7862C42.7214 42.6588 42.3937 44.6141 41.8246 46.4783V46.4819Z" fill="#D8DBE1"/>
<path d="M37.1172 32.2035V26.4615C37.3549 26.5856 37.5818 26.6841 37.7871 26.8118C38.6154 27.3371 39.2817 28.0448 39.7967 28.8729C40.3009 29.6864 40.7187 30.5546 41.1724 31.3973C41.2049 31.4557 41.2193 31.525 41.2481 31.6089C39.8903 31.9555 38.5254 32.1379 37.1172 32.1999V32.2035Z" fill="#D8DBE1"/>
<path d="M35.5357 32.1962C34.5417 32.2072 32.442 31.9044 31.4336 31.6089C31.7109 29.9089 34.2103 26.7972 35.5357 26.509V32.1962Z" fill="#D8DBE1"/>
<path d="M41.2778 48.0615C40.327 50.1555 39.2898 52.1145 37.1289 53.2308V47.4742C38.5155 47.5143 39.8768 47.7186 41.2778 48.0615Z" fill="#D8DBE1"/>
<path d="M35.5362 53.187C34.9816 52.9864 34.535 52.6617 34.1244 52.2859C33.0584 51.301 32.3165 50.0789 31.7043 48.7729C31.5998 48.5504 31.5062 48.3242 31.3945 48.0688C32.7631 47.7223 34.1317 47.5253 35.5362 47.4778V53.1906V53.187Z" fill="#D8DBE1"/>
<path d="M42.8327 48.4847C43.6899 48.8604 44.5614 49.2398 45.4834 49.6448C43.9636 51.0821 42.2817 52.0853 40.3945 52.6982C40.8339 52.0379 41.3057 51.3885 41.7055 50.6991C42.1052 50.0059 42.433 49.269 42.8291 48.481L42.8327 48.4847Z" fill="#D8DBE1"/>
<path d="M29.8664 48.4665C30.5075 50.0205 31.2602 51.4323 32.3586 52.7274C30.3778 52.0853 28.6995 51.0784 27.1797 49.6448C28.0945 49.2435 28.9624 48.8604 29.8664 48.4628V48.4665Z" fill="#D8DBE1"/>
<path d="M42.793 31.2076C42.1555 29.6499 41.3992 28.2381 40.3008 26.9394C42.278 27.5815 43.9527 28.5847 45.4833 30.0184C44.5685 30.4233 43.697 30.8063 42.793 31.204V31.2076Z" fill="#D8DBE1"/>
<path d="M29.8265 31.1894C28.9585 30.8064 28.0906 30.427 27.1758 30.022C28.6884 28.5993 30.3523 27.5961 32.2503 26.9796C31.7965 27.669 31.3283 28.3184 30.9285 29.0115C30.5324 29.6973 30.2118 30.4233 29.8265 31.193V31.1894Z" fill="#D8DBE1"/>
</g>
</g>
<path d="M51.0435 55.9999L40 76.8435L45.7892 75.574L48.4702 79.9772L59.5132 59.1336L51.0435 55.9999Z" fill="#0042CF"/>
<path d="M50.4883 59.0529L61.3827 79.9999L64.2453 75.5915L70.0015 76.9469L59.1066 55.9999L50.4883 59.0529Z" fill="#0042CF"/>
<path fill-rule="evenodd" clip-rule="evenodd" d="M67.9609 52.1826C67.7921 51.5549 67.1305 51.13 66.4735 50.7081C65.9389 50.3648 65.4074 50.0234 65.147 49.5763C64.8805 49.1187 64.8467 48.4804 64.813 47.8427C64.7722 47.0717 64.7314 46.3016 64.2796 45.8525C63.8277 45.4035 63.0527 45.363 62.2769 45.3224C61.6352 45.2889 60.9929 45.2553 60.5324 44.9905C60.0825 44.7317 59.7389 44.2035 59.3933 43.6721C58.9687 43.0194 58.5411 42.3621 57.9098 42.1942C57.3092 42.0346 56.6309 42.3781 55.9443 42.7257C55.3654 43.0188 54.7805 43.315 54.2315 43.315C53.6824 43.315 53.0975 43.0189 52.5184 42.7257C51.8316 42.3781 51.1531 42.0346 50.5525 42.1942C49.9209 42.3619 49.4933 43.0194 49.0688 43.6722C48.7232 44.2035 48.3797 44.7318 47.9298 44.9905C47.4694 45.2553 46.8271 45.2889 46.1854 45.3224C45.4096 45.363 44.6346 45.4035 44.1827 45.8525C43.7308 46.3016 43.6901 47.0718 43.6493 47.8428C43.6155 48.4804 43.5817 49.1187 43.3153 49.5763C43.0549 50.0234 42.5234 50.3649 41.9888 50.7083C41.3319 51.1302 40.6705 51.5551 40.5017 52.1826C40.3412 52.7794 40.6868 53.4535 41.0366 54.1358C41.3316 54.7111 41.6295 55.2923 41.6295 55.838C41.6295 56.3836 41.3315 56.9649 41.0364 57.5403C40.6865 58.2227 40.3409 58.8969 40.5014 59.4937C40.6702 60.1211 41.3317 60.546 41.9886 60.968C42.5233 61.3114 43.0549 61.6529 43.3153 62.1C43.5817 62.5576 43.6155 63.1958 43.6493 63.8335C43.6901 64.6045 43.7308 65.3747 44.1827 65.8237C44.6346 66.2728 45.4096 66.3133 46.1854 66.3539C46.8271 66.3874 47.4694 66.421 47.9298 66.6857C48.3798 66.9445 48.7234 67.4728 49.0689 68.004C49.4935 68.6567 49.9211 69.314 50.5525 69.4818C51.1531 69.6413 51.8314 69.2979 52.518 68.9503C53.0969 68.6571 53.6817 68.361 54.2308 68.361C54.7799 68.361 55.3648 68.6571 55.9439 68.9503C56.6305 69.2979 57.3087 69.6413 57.9091 69.4818C58.5407 69.314 58.9682 68.6567 59.3928 68.0039C59.7383 67.4726 60.0819 66.9444 60.5318 66.6857C60.9923 66.4209 61.6346 66.3873 62.2764 66.3537C63.0522 66.3131 63.8271 66.2726 64.2789 65.8237C64.7308 65.3747 64.7715 64.6045 64.8123 63.8335C64.8461 63.1958 64.8799 62.5576 65.1463 62.1C65.4067 61.6529 65.9383 61.3114 66.4728 60.968C67.1297 60.546 67.7911 60.1211 67.9599 59.4937C68.1204 58.8968 67.7748 58.2228 67.425 57.5405C67.13 56.9651 66.8321 56.384 66.8321 55.8383C66.8321 55.2927 67.13 54.7115 67.425 54.1361C67.7748 53.4538 68.1204 52.7798 67.9599 52.1829L67.9609 52.1826Z" fill="#497DED"/>
<path d="M49.6406 55.5848L53.8509 59.3565L59.9682 52.4754" stroke="white" stroke-width="2" stroke-linejoin="round"/>
<defs>
<clipPath id="clip0_1630_4373">
<rect width="48.6542" height="58.1538" fill="white" transform="translate(12 8)"/>
</clipPath>
<clipPath id="clip1_1630_4373">
<rect width="26.6221" height="26.7692" fill="white" transform="translate(23.0156 26.4615)"/>
</clipPath>
</defs>
</svg>
