<svg width="80" height="80" viewBox="0 0 80 80" fill="none" xmlns="http://www.w3.org/2000/svg">
<rect x="9" y="20.9999" width="62" height="42" fill="#D8DBE1"/>
<rect x="9" y="17.0001" width="62" height="39" fill="#253340"/>
<rect x="26" y="68.9999" width="28" height="4" rx="2" fill="#D8DBE1"/>
<rect x="32" y="60.9999" width="16" height="9" fill="#D8DBE1"/>
<path d="M14.2837 21.9851H4L8.43987 13H17.455L14.2837 21.9851Z" fill="#497DED"/>
<path d="M24.576 21.9851H14.2852L17.4565 13H26.4788L24.576 21.9851Z" fill="#0042CF"/>
<path d="M34.8579 21.9851H24.5742L26.477 13H35.4922L34.8579 21.9851Z" fill="#497DED"/>
<path d="M45.1431 21.9851H34.8594L35.4936 13H44.5088L45.1431 21.9851Z" fill="#0042CF"/>
<path d="M55.4329 21.9851H45.1421L44.5078 13H53.5301L55.4329 21.9851Z" fill="#497DED"/>
<path d="M65.7177 21.9851H55.434L53.5312 13H62.5464L65.7177 21.9851Z" fill="#0042CF"/>
<path d="M76.0019 21.9851H65.7182L62.5469 13H71.562L76.0019 21.9851Z" fill="#497DED"/>
<path d="M4 21.9852H14.2837V25.5384C14.2837 27.9979 11.9818 30.0001 9.13828 30.0001C6.30189 30.0001 4 27.9979 4 25.5384V21.9852Z" fill="#2E66DF"/>
<path d="M14.2845 21.9852H24.5681V25.5384C24.5681 27.9979 22.2663 30.0001 19.4227 30.0001C16.5864 30.0001 14.2773 28.0041 14.2773 25.5384V21.9852H14.2845Z" fill="#0237A7"/>
<path d="M24.5696 21.9852H34.8533V25.5384C34.8533 27.9979 32.5514 30.0001 29.7079 30.0001C26.8715 30.0001 24.5625 28.0041 24.5625 25.5384V21.9852H24.5696Z" fill="#2E66DF"/>
<path d="M34.8587 21.9852H45.1424V25.5384C45.1424 27.9979 42.8405 30.0001 39.997 30.0001C37.1606 30.0001 34.8516 28.0041 34.8516 25.5384V21.9852H34.8587Z" fill="#0237A7"/>
<path d="M45.1399 21.9852H55.4236V25.5384C55.4236 27.9979 53.1217 30.0001 50.2782 30.0001C47.4418 30.0001 45.1328 28.0041 45.1328 25.5384V21.9852H45.1399Z" fill="#2E66DF"/>
<path d="M55.429 21.9852H65.7127V25.5384C65.7127 27.9979 63.4108 30.0001 60.5673 30.0001C57.7309 30.0001 55.4219 28.0041 55.4219 25.5384V21.9852H55.429Z" fill="#0237A7"/>
<path d="M65.7181 21.9852H76.0017V25.5384C76.0017 27.9979 73.6999 30.0001 70.8563 30.0001C68.02 30.0001 65.7109 28.0041 65.7109 25.5384V21.9852H65.7181Z" fill="#2E66DF"/>
<rect x="15" y="35.9999" width="12" height="12" rx="1" fill="#3C4A57"/>
<rect x="30" y="35.9999" width="34" height="2" rx="1" fill="#3C4A57"/>
<rect x="30" y="40.0001" width="21" height="2" rx="1" fill="#3C4A57"/>
</svg>
