<svg width="80" height="80" viewBox="0 0 80 80" fill="none" xmlns="http://www.w3.org/2000/svg">
<path d="M40.2308 14.9993C24.6371 14.9993 12 27.5332 12 42.9996C12 58.4661 24.6371 71 40.2308 71C55.8246 71 68.4617 58.4661 68.4617 42.9996C68.4617 27.5332 55.8181 14.9993 40.2308 14.9993Z" fill="#D8DBE1"/>
<path d="M38.6423 58.0545C38.8951 55.0641 39.6473 51.5721 37.3844 49.3277C34.8687 46.8324 31.6008 48.5817 30.8486 44.5945C30.0965 41.6041 33.1115 37.6169 34.1165 34.8709C35.6273 30.8837 35.8737 27.6425 34.3694 23.6553C33.52 20.9093 31.9379 17.443 28.8711 17.3658C18.9378 21.7003 12 31.5461 12 42.9996C12 58.4596 24.6371 71 40.2308 71C40.8662 71 41.4952 70.9742 42.1176 70.9292C41.4952 69.3794 40.4448 68.1896 39.3944 66.2861C37.8837 63.2957 38.1365 61.3021 38.6423 58.0609V58.0545Z" fill="#ABB1BF"/>
<path d="M57.9895 29.1405C59.9995 32.6325 56.4787 37.6165 59.9995 40.8577C62.2883 42.6712 66.023 42.6262 68.3831 41.102C67.5726 29.0762 59.1047 19.1339 47.7773 16.0213C48.5943 17.7577 48.2701 20.1564 48.9444 22.1629C50.7016 27.6485 55.7331 25.1533 57.9959 29.1405H57.9895Z" fill="#ABB1BF"/>
<path d="M29.6846 7C25.6457 7 22.3633 10.2447 22.3633 14.2372C22.3633 18.2298 29.6846 28.7117 29.6846 28.7117C29.6846 28.7117 37.0059 18.2298 37.0059 14.2372C37.0059 10.2447 33.7235 7 29.6846 7ZM29.6846 16.6497C28.3423 16.6497 27.2442 15.5641 27.2442 14.2372C27.2442 12.9104 28.3423 11.8248 29.6846 11.8248C31.0268 11.8248 32.125 12.9104 32.125 14.2372C32.125 15.5641 31.0268 16.6497 29.6846 16.6497Z" fill="#253340"/>
<path d="M47.8047 51.0711L51.5482 58.8094H57.1634V51.0711H47.8047Z" fill="#497DED"/>
<path d="M47.8047 45.2675L53.4199 39.4637H57.1634V45.2675H47.8047Z" fill="#497DED"/>
<path d="M68.3879 45.2675L74.0031 39.4638V49.1367C74.0031 51.2744 72.3279 53.0059 70.2596 53.0059H32.8249C31.7954 53.0059 30.9531 52.1353 30.9531 51.0713C30.9531 47.8695 33.4706 45.2675 36.5683 45.2675H68.3879Z" fill="#497DED"/>
<path d="M31.2773 49.1369H38.4367C39.4662 49.1369 40.3085 48.2664 40.3085 47.2024V45.2678H36.565C35.0115 45.2678 33.6077 45.9159 32.5969 46.9702C32.0073 47.5699 31.5487 48.3148 31.2773 49.1369Z" fill="#0042CF"/>
</svg>
