<svg width="80" height="80" viewBox="0 0 80 80" fill="none" xmlns="http://www.w3.org/2000/svg">
<g clip-path="url(#clip0_1630_4453)">
<path d="M41.4381 13.9411H38.5586V23.2463H41.4381V13.9411Z" fill="#497DED"/>
<path d="M40.003 15.6842C42.669 15.6842 44.8302 13.5163 44.8302 10.8421C44.8302 8.16788 42.669 6 40.003 6C37.337 6 35.1758 8.16788 35.1758 10.8421C35.1758 13.5163 37.337 15.6842 40.003 15.6842Z" fill="#0042CF"/>
<path d="M40.0048 12.4926C40.9136 12.4926 41.6503 11.7537 41.6503 10.8421C41.6503 9.93054 40.9136 9.19158 40.0048 9.19158C39.0961 9.19158 38.3594 9.93054 38.3594 10.8421C38.3594 11.7537 39.0961 12.4926 40.0048 12.4926Z" fill="#0042CF"/>
<path d="M18.2171 25.7198L16.7773 28.2212L24.8111 32.8738L26.2509 30.3724L18.2171 25.7198Z" fill="#497DED"/>
<path d="M14.8272 30.2611C17.4932 30.2611 19.6544 28.0932 19.6544 25.4189C19.6544 22.7447 17.4932 20.5768 14.8272 20.5768C12.1612 20.5768 10 22.7447 10 25.4189C10 28.0932 12.1612 30.2611 14.8272 30.2611Z" fill="#0042CF"/>
<path d="M14.829 27.0695C15.7378 27.0695 16.4745 26.3305 16.4745 25.4189C16.4745 24.5074 15.7378 23.7684 14.829 23.7684C13.9203 23.7684 13.1836 24.5074 13.1836 25.4189C13.1836 26.3305 13.9203 27.0695 14.829 27.0695Z" fill="#0042CF"/>
<path d="M16.7868 51.7829L18.2266 54.2844L26.2603 49.6317L24.8206 47.1303L16.7868 51.7829Z" fill="#497DED"/>
<path d="M14.8272 59.4232C17.4932 59.4232 19.6544 57.2553 19.6544 54.5811C19.6544 51.9068 17.4932 49.7389 14.8272 49.7389C12.1612 49.7389 10 51.9068 10 54.5811C10 57.2553 12.1612 59.4232 14.8272 59.4232Z" fill="#0042CF"/>
<path d="M14.829 56.2316C15.7378 56.2316 16.4745 55.4926 16.4745 54.5811C16.4745 53.6695 15.7378 52.9305 14.829 52.9305C13.9203 52.9305 13.1836 53.6695 13.1836 54.5811C13.1836 55.4926 13.9203 56.2316 14.829 56.2316Z" fill="#0042CF"/>
<path d="M38.5619 66.0589H41.4414V56.7537H38.5619V66.0589Z" fill="#497DED"/>
<path d="M40.003 74C42.669 74 44.8302 71.8321 44.8302 69.1579C44.8302 66.4837 42.669 64.3158 40.003 64.3158C37.337 64.3158 35.1758 66.4837 35.1758 69.1579C35.1758 71.8321 37.337 74 40.003 74Z" fill="#0042CF"/>
<path d="M40.0048 70.8084C40.9136 70.8084 41.6503 70.0695 41.6503 69.1579C41.6503 68.2463 40.9136 67.5074 40.0048 67.5074C39.0961 67.5074 38.3594 68.2463 38.3594 69.1579C38.3594 70.0695 39.0961 70.8084 40.0048 70.8084Z" fill="#0042CF"/>
<path d="M61.7829 54.2727L63.2227 51.7713L55.1889 47.1187L53.7491 49.6201L61.7829 54.2727Z" fill="#497DED"/>
<path d="M65.171 59.4232C67.8369 59.4232 69.9982 57.2553 69.9982 54.5811C69.9982 51.9068 67.8369 49.7389 65.171 49.7389C62.505 49.7389 60.3438 51.9068 60.3438 54.5811C60.3438 57.2553 62.505 59.4232 65.171 59.4232Z" fill="#0042CF"/>
<path d="M65.1728 56.2316C66.0815 56.2316 66.8182 55.4926 66.8182 54.5811C66.8182 53.6695 66.0815 52.9305 65.1728 52.9305C64.264 52.9305 63.5273 53.6695 63.5273 54.5811C63.5273 55.4926 64.264 56.2316 65.1728 56.2316Z" fill="#0042CF"/>
<path d="M63.2132 28.218L61.7734 25.7165L53.7397 30.3692L55.1794 32.8706L63.2132 28.218Z" fill="#497DED"/>
<path d="M65.171 30.2611C67.8369 30.2611 69.9982 28.0932 69.9982 25.4189C69.9982 22.7447 67.8369 20.5768 65.171 20.5768C62.505 20.5768 60.3438 22.7447 60.3438 25.4189C60.3438 28.0932 62.505 30.2611 65.171 30.2611Z" fill="#0042CF"/>
<path d="M65.1728 27.0695C66.0815 27.0695 66.8182 26.3305 66.8182 25.4189C66.8182 24.5074 66.0815 23.7684 65.1728 23.7684C64.264 23.7684 63.5273 24.5074 63.5273 25.4189C63.5273 26.3305 64.264 27.0695 65.1728 27.0695Z" fill="#0042CF"/>
</g>
<path d="M39.9957 21.4547C29.7103 21.4547 21.375 29.7563 21.375 40.0002C21.375 50.244 29.7103 58.5456 39.9957 58.5456C50.2811 58.5456 58.6164 50.244 58.6164 40.0002C58.6164 29.7563 50.2768 21.4547 39.9957 21.4547Z" fill="#253340"/>
<path d="M38.7621 50.0903C38.9271 48.1372 39.418 45.8564 37.9412 44.3905C36.2994 42.7608 34.1667 43.9033 33.6759 41.2991C33.185 39.346 35.1527 36.7418 35.8085 34.9483C36.7945 32.3441 36.9553 30.2272 35.9736 27.623C35.4192 25.8295 34.3868 23.5655 32.3853 23.5151C25.9027 26.3461 21.375 32.7768 21.375 40.2574C21.375 50.3549 29.6221 58.5454 39.7988 58.5454C40.2135 58.5454 40.624 58.5286 41.0302 58.4992C40.624 57.487 39.9385 56.7099 39.253 55.4666C38.267 53.5135 38.4321 52.2114 38.7621 50.0945V50.0903Z" fill="#3C4A57"/>
<path d="M51.8368 31.2516C53.1486 33.5851 50.8508 36.9155 53.1486 39.0814C54.6424 40.2932 57.0798 40.2631 58.6202 39.2447C58.0912 31.2086 52.5646 24.5649 45.1719 22.485C45.7051 23.6453 45.4935 25.2482 45.9336 26.589C47.0804 30.2546 50.3641 28.5872 51.841 31.2516H51.8368Z" fill="#3C4A57"/>
<path d="M35.4706 36.9091C32.8319 36.9091 30.6875 39.0203 30.6875 41.6181C30.6875 44.216 35.4706 51.0363 35.4706 51.0363C35.4706 51.0363 40.2537 44.216 40.2537 41.6181C40.2537 39.0203 38.1093 36.9091 35.4706 36.9091ZM35.4706 43.1878C34.5937 43.1878 33.8762 42.4815 33.8762 41.6181C33.8762 40.7548 34.5937 40.0484 35.4706 40.0484C36.3475 40.0484 37.065 40.7548 37.065 41.6181C37.065 42.4815 36.3475 43.1878 35.4706 43.1878Z" fill="white"/>
<path d="M45.1659 27.026C43.4539 27.026 42.0625 28.3958 42.0625 30.0814C42.0625 31.767 45.1659 36.1922 45.1659 36.1922C45.1659 36.1922 48.2694 31.767 48.2694 30.0814C48.2694 28.3958 46.878 27.026 45.1659 27.026ZM45.1659 31.0999C44.597 31.0999 44.1315 30.6415 44.1315 30.0814C44.1315 29.5212 44.597 29.0629 45.1659 29.0629C45.7349 29.0629 46.2004 29.5212 46.2004 30.0814C46.2004 30.6415 45.7349 31.0999 45.1659 31.0999Z" fill="#D8DBE1"/>
<defs>
<clipPath id="clip0_1630_4453">
<rect width="60" height="68" fill="white" transform="translate(10 6)"/>
</clipPath>
</defs>
</svg>
