<svg width="80" height="80" viewBox="0 0 80 80" fill="none" xmlns="http://www.w3.org/2000/svg">
<rect x="16" y="12.5" width="42.75" height="55" fill="#ABB1BF"/>
<rect x="27.25" y="12.5" width="20.25" height="6.6" fill="#3C4A57"/>
<ellipse cx="37.375" cy="12.5" rx="5.625" ry="5.5" fill="#3C4A57"/>
<path d="M22 29.2594L24.8537 32L29 27" stroke="white" stroke-width="2" stroke-linejoin="round"/>
<path d="M32 30H52" stroke="white" stroke-width="2"/>
<path d="M22 41.2594L24.8537 44L29 39" stroke="white" stroke-width="2" stroke-linejoin="round"/>
<path d="M32 42H52" stroke="white" stroke-width="2"/>
<path d="M22 53.2594L24.8537 56L29 51" stroke="white" stroke-width="2" stroke-linejoin="round"/>
<path d="M32 54H52" stroke="white" stroke-width="2"/>
<path d="M65.5 46.6H47.5L43 52.1H70L65.5 46.6Z" fill="#3C4A57"/>
<rect x="43" y="52.0999" width="27" height="20.9" fill="#253340"/>
<path d="M52 52.0999H61L59.5 46.5999H53.5L52 52.0999Z" fill="#497DED"/>
<path fill-rule="evenodd" clip-rule="evenodd" d="M61 52.1847H52V59.6185L52.3341 59.2921L53.3736 60.3078H53.4115L54.451 59.2921L55.4905 60.3078H55.614L56.7835 59.2921L57.9529 60.3078H58.0679L59.1074 59.2921L60.1469 60.3078H60.1808L61 59.5074V52.1847Z" fill="#0042CF"/>
<rect x="53.125" y="66.3999" width="6.75" height="2.2" rx="1.1" fill="white"/>
</svg>
