<svg width="40" height="40" viewBox="0 0 40 40" fill="none" xmlns="http://www.w3.org/2000/svg">
<path d="M25 26.4949L20 28L21.6256 23" stroke="#0042CF" stroke-width="2" stroke-linecap="round" stroke-linejoin="round"/>
<path d="M25.3109 26L34.8539 16.4673C35.0487 16.272 35.0487 15.9594 34.8539 15.7719L32.2364 13.1465C32.0416 12.9512 31.73 12.9512 31.5431 13.1465L22 22.6792" stroke="#0042CF" stroke-width="2" stroke-linecap="round" stroke-linejoin="round"/>
<path d="M12.9703 9V28.5041C12.9703 28.5041 13.0898 30.7336 10.8242 30.7336" stroke="#0042CF" stroke-width="2" stroke-linecap="round" stroke-linejoin="round"/>
<path d="M15.8477 14.8664H25.2175" stroke="#0042CF" stroke-width="2" stroke-linecap="round" stroke-linejoin="round"/>
<path d="M15.8477 18.8022H19.8477" stroke="#0042CF" stroke-width="2" stroke-linecap="round" stroke-linejoin="round"/>
<path d="M27.7453 15.9026V9H12.9677L12.8993 24.0334H9V28.2493C9 30.3051 10.6679 31 12.7115 31H24.0338C26.0717 31 27.7453 29.5696 27.7453 27.5138V24.0334" stroke="#0042CF" stroke-width="2" stroke-linecap="round" stroke-linejoin="round"/>
</svg>
