<svg width="40" height="40" viewBox="0 0 40 40" fill="none" xmlns="http://www.w3.org/2000/svg">
<path d="M30.7798 20C30.7798 18.0097 32.2177 16.3865 34 16.3865V12H6V16.3865C7.77368 16.3865 9.22017 18 9.22017 20C9.22017 22 7.78229 23.6135 6 23.6135V28H34V23.6135C32.2263 23.6135 30.7798 22 30.7798 20Z" stroke="#0042CF" stroke-width="2" stroke-linejoin="bevel"/>
<path d="M23.0734 16.5508L16.9258 23.4493" stroke="#0042CF" stroke-width="2" stroke-linejoin="bevel"/>
<path d="M17.4556 18.6088C18.1689 18.6088 18.7471 17.9599 18.7471 17.1595C18.7471 16.3591 18.1689 15.7102 17.4556 15.7102C16.7423 15.7102 16.1641 16.3591 16.1641 17.1595C16.1641 17.9599 16.7423 18.6088 17.4556 18.6088Z" fill="#0042CF"/>
<path d="M22.6978 24.483C23.411 24.483 23.9893 23.8342 23.9893 23.0337C23.9893 22.2333 23.411 21.5845 22.6978 21.5845C21.9845 21.5845 21.4062 22.2333 21.4062 23.0337C21.4062 23.8342 21.9845 24.483 22.6978 24.483Z" fill="#0042CF"/>
</svg>
