<svg width="64" height="64" viewBox="0 0 64 64" fill="none" xmlns="http://www.w3.org/2000/svg">
<g clip-path="url(#clip0_1667_4162)">
<rect x="38.4922" y="42.7432" width="6.01228" height="9.01842" transform="rotate(-45 38.4922 42.7432)" fill="#253340"/>
<rect x="41.3203" y="48.4121" width="10.0205" height="22.045" transform="rotate(-45 41.3203 48.4121)" fill="#ABB1BF"/>
<circle cx="25.0512" cy="25.0512" r="23.5512" fill="#253340" stroke="#ABB1BF" stroke-width="3"/>
<g clip-path="url(#clip1_1667_4162)">
<path d="M14 23.2637C14.137 23.1008 14.2579 22.922 14.4111 22.771C16.3615 20.8443 18.316 18.9175 20.2665 16.9947C20.9314 16.3392 21.685 16.3392 22.35 16.9947C23.0754 17.7098 23.8007 18.4249 24.5261 19.14C24.5785 19.1916 24.6228 19.2512 24.6551 19.2909C26.5854 17.388 28.4956 15.5049 30.4098 13.6179C30.3614 13.6179 30.2929 13.6099 30.2284 13.6099C29.3942 13.6099 28.5601 13.6099 27.7259 13.6099C27.2463 13.6099 26.9965 13.3596 26.9965 12.8829C26.9965 12.4856 26.9965 12.0884 26.9965 11.6911C26.9965 11.27 27.2584 11.0078 27.6856 11.0078C29.894 11.0078 32.1023 11.0078 34.3107 11.0078C34.7379 11.0078 34.9999 11.274 34.9999 11.6951C34.9999 13.8642 34.9999 16.0333 34.9999 18.2064C34.9999 18.6315 34.7258 18.8976 34.2906 18.9016C33.8957 18.9056 33.4967 18.9016 33.1018 18.9016C32.6141 18.9016 32.3522 18.6434 32.3482 18.1666C32.3482 17.3562 32.3482 16.5497 32.3482 15.7393C32.3482 15.6678 32.3482 15.5963 32.3482 15.4811C32.2555 15.5685 32.195 15.6201 32.1386 15.6757C29.9987 17.7853 27.8548 19.8948 25.7149 22.0083C25.3321 22.3857 24.8848 22.5724 24.3609 22.4135C24.1231 22.342 23.8894 22.195 23.708 22.0242C22.9545 21.3091 22.225 20.5701 21.4835 19.8431C21.4312 19.7915 21.3868 19.7319 21.278 19.6008C21.2176 19.7001 21.1894 19.7835 21.1329 19.8392C19.4766 21.4759 17.8204 23.1127 16.156 24.7375C16.023 24.8647 15.8296 24.9759 15.6523 24.9997C15.4991 25.0196 15.2896 24.9521 15.1687 24.8488C14.814 24.5429 14.4916 24.2012 14.1652 23.8675C14.0927 23.7881 14.0524 23.6808 14 23.5894C14 23.4822 14 23.3749 14 23.2676V23.2637Z" fill="#497DED"/>
</g>
<path d="M19.328 31.46H21.0897C21.0736 30.0205 19.9188 29.043 18.1249 29.043C16.3632 29.043 15.0902 30.0044 15.0956 31.4492C15.0956 32.6201 15.9174 33.2861 17.2548 33.5977L18.0712 33.791C18.9306 33.9844 19.328 34.2207 19.3388 34.6719C19.328 35.1714 18.8661 35.5098 18.0927 35.5098C17.2602 35.5098 16.6962 35.123 16.6532 34.3711H14.8915C14.9237 36.1597 16.1752 37.0298 18.1142 37.0352C20.0478 37.0298 21.1918 36.1436 21.1972 34.6719C21.1918 33.4258 20.3217 32.6792 18.8231 32.3516L18.1464 32.1904C17.4481 32.04 16.9755 31.8037 16.9862 31.3203C16.9916 30.8799 17.3729 30.5576 18.1142 30.5576C18.8607 30.5576 19.2797 30.896 19.328 31.46ZM22.1425 36.9277H27.5351V35.4346H23.9687V33.7803H27.245V32.2871H23.9687V30.6436H27.5243V29.1504H22.1425V36.9277ZM35.9892 33.0391C35.9945 30.4717 34.3778 29.043 32.2938 29.043C30.1991 29.043 28.5985 30.4717 28.5985 33.0391C28.5985 35.5903 30.1991 37.0352 32.2938 37.0352C34.3778 37.0352 35.9945 35.6011 35.9892 33.0391ZM30.4677 33.0391C30.4677 31.4922 31.1605 30.6489 32.2938 30.6543C33.4325 30.6489 34.1254 31.4922 34.12 33.0391C34.1254 34.5859 33.4325 35.4238 32.2938 35.4238C31.1605 35.4238 30.4677 34.5859 30.4677 33.0391Z" fill="white"/>
</g>
<defs>
<clipPath id="clip0_1667_4162">
<rect width="64" height="64" fill="white"/>
</clipPath>
<clipPath id="clip1_1667_4162">
<rect width="20.9999" height="13.9999" fill="white" transform="translate(14 11)"/>
</clipPath>
</defs>
</svg>
