<svg width="80" height="80" viewBox="0 0 80 80" fill="none" xmlns="http://www.w3.org/2000/svg">
<path d="M27.1678 7H64.2866C65.7793 7 67 8.17819 67 9.61891V68.3747C67 69.8154 65.7793 71 64.2866 71H13.7134C12.2207 71 11 69.8218 11 68.3747V22.6046L27.1678 7Z" fill="#D8DBE1"/>
<path d="M27.1678 20.562C27.1678 21.6825 26.2191 22.6046 25.0514 22.6046H11L27.1678 7V20.562Z" fill="#ABB1BF"/>
<rect x="26.2031" y="27" width="28" height="2" fill="#ABB1BF"/>
<rect x="19" y="33" width="40" height="2" fill="#ABB1BF"/>
<rect x="23.7969" y="39" width="30.4" height="2" fill="#ABB1BF"/>
<rect x="20.6016" y="45" width="36.8" height="2" fill="#ABB1BF"/>
<path d="M78.2002 65.8064H76.7908V64.4677C76.7908 62.6752 75.3258 61.2226 73.5187 61.2226H69.0556C68.1843 61.0797 67.981 60.7475 67.9212 59.8851C67.7197 56.9941 68.2752 54.3351 69.626 51.7442C70.6342 49.8106 71.5861 47.7666 72.0645 45.6604C73.0374 41.3785 69.8598 37.2591 65.3381 36.5414C64.9111 36.4738 64.486 36.4412 64.0644 36.4412C63.6428 36.4412 63.2171 36.4738 62.7907 36.5414C58.269 37.2585 55.0914 41.3785 56.0637 45.6604C56.5421 47.7666 57.494 49.8106 58.5022 51.7442C59.853 54.3351 60.4079 56.9941 60.207 59.8851C60.1466 60.7475 59.9439 61.0797 59.0726 61.2226H54.6095C52.8024 61.2226 51.3374 62.6758 51.3374 64.4677V65.8064H49.928C49.4156 65.8064 49 66.2187 49 66.727V70.0788C49 70.5872 49.4156 70.9994 49.928 70.9994H78.2002C78.7126 70.9994 79.1282 70.5872 79.1282 70.0788V66.727C79.1282 66.2187 78.7126 65.8064 78.2002 65.8064Z" fill="#253340"/>
<rect x="49" y="66" width="30" height="5" fill="#0042CF"/>
</svg>
