<svg width="64" height="64" viewBox="0 0 64 64" fill="none" xmlns="http://www.w3.org/2000/svg">
<path d="M59.3429 6H2.65714C1.18964 6 0 7.21723 0 8.71875V61.2813C0 62.7828 1.18964 64 2.65714 64H59.3429C60.8104 64 62 62.7828 62 61.2813V8.71875C62 7.21723 60.8104 6 59.3429 6Z" fill="#D8DBE1"/>
<mask id="mask0_1667_4137" style="mask-type:luminance" maskUnits="userSpaceOnUse" x="0" y="6" width="62" height="58">
<path d="M59.3429 6H2.65714C1.18964 6 0 7.21723 0 8.71875V61.2813C0 62.7828 1.18964 64 2.65714 64H59.3429C60.8104 64 62 62.7828 62 61.2813V8.71875C62 7.21723 60.8104 6 59.3429 6Z" fill="white"/>
</mask>
<g mask="url(#mask0_1667_4137)">
<path d="M64.4357 2.62061H-1.52344V15.3897H64.4357V2.62061Z" fill="#253340"/>
</g>
<rect x="4.69531" y="10.1592" width="1.87879" height="1.93333" fill="#D9D9D9"/>
<rect x="8.45312" y="10.1592" width="1.87879" height="1.93333" fill="#D9D9D9"/>
<rect x="12.2109" y="10.1592" width="1.87879" height="1.93333" fill="#D9D9D9"/>
<rect x="28" y="20" width="25" height="2" fill="#ABB1BF"/>
<rect x="28" y="25" width="19" height="2" fill="#ABB1BF"/>
<rect x="28" y="30" width="29" height="2" fill="#4782FF"/>
<rect x="28" y="35" width="10" height="2" fill="#ABB1BF"/>
<rect x="5" y="20" width="20" height="20" fill="#0042CF"/>
<mask id="mask1_1667_4137" style="mask-type:alpha" maskUnits="userSpaceOnUse" x="5" y="20" width="20" height="20">
<rect x="5" y="20" width="20" height="20" fill="#ABB1BF"/>
</mask>
<g mask="url(#mask1_1667_4137)">
<path d="M4 41L26 19M4 19L26 41" stroke="white"/>
</g>
<rect x="5" y="43" width="52" height="16" fill="#ABB1BF"/>
</svg>
