<svg width="64" height="64" viewBox="0 0 64 64" fill="none" xmlns="http://www.w3.org/2000/svg">
<g clip-path="url(#clip0_1667_4115)">
<path d="M30 4.07013C13.429 4.07013 0 17.4992 0 34.0701C0 50.6411 13.429 64.0701 30 64.0701C46.571 64.0701 60 50.6411 60 34.0701C60 17.4992 46.5641 4.07013 30 4.07013Z" fill="#D8DBE1"/>
<path d="M28.3119 50.2C28.5806 46.996 29.3799 43.2547 26.9752 40.85C24.3018 38.1766 20.8291 40.0507 20.0299 35.7788C19.2306 32.5748 22.4345 28.3029 23.5025 25.3608C25.1079 21.0888 25.3698 17.6162 23.7712 13.3442C22.8686 10.4021 21.1874 6.68827 17.9283 6.60559C7.37253 11.2496 0 21.7985 0 34.07C0 50.6341 13.429 64.07 30 64.07C30.6752 64.07 31.3436 64.0424 32.0051 63.9942C31.3436 62.3337 30.2274 61.059 29.1112 59.0195C27.5057 55.8155 27.7745 53.6795 28.3119 50.2069V50.2Z" fill="#ABB1BF"/>
<path d="M48.8755 19.2217C51.0115 22.9631 47.2701 28.303 51.0115 31.7757C53.4437 33.7187 57.4125 33.6705 59.9205 32.0375C59.0593 19.1528 50.0606 8.50051 38.0234 5.16565C38.8916 7.02601 38.5471 9.59606 39.2637 11.7458C41.1309 17.6232 46.4777 14.9498 48.8824 19.2217H48.8755Z" fill="#ABB1BF"/>
<rect y="11.57" width="19.5781" height="14.9998" fill="#0042CF"/>
<path d="M9.7882 30.8554L5.07844 22.0162L14.498 22.0162L9.7882 30.8554Z" fill="#0042CF"/>
<path d="M7.14296 22.7841H5.64641L8.38881 15.0051H10.1133L12.8557 22.7841H11.3629L10.7172 20.8583H7.78867L7.14296 22.7841ZM8.16471 19.734H10.3374L9.28142 16.5928H9.22065L8.16471 19.734Z" fill="white"/>
<rect x="41.3359" y="7.2843" width="20.6658" height="15.2677" fill="#253340"/>
<path d="M51.6695 27.6411L47.1952 19.0531L56.1438 19.0531L51.6695 27.6411Z" fill="#253340"/>
<path d="M53.4178 11.841L54.6978 12.211C53.4378 15.811 51.1078 17.911 47.5278 19.031C47.3878 18.731 47.0078 18.151 46.7678 17.861C50.2278 16.951 52.3778 15.101 53.4178 11.841ZM49.5578 11.921C50.5678 14.881 52.7278 17.011 56.2878 17.811C55.9978 18.091 55.6078 18.661 55.4178 19.011C51.6678 18.031 49.6078 15.741 48.3578 12.281L49.5578 11.921ZM46.9478 11.191H56.1078V12.371H46.9478V11.191ZM50.8778 9.61101H52.1178V11.911H50.8778V9.61101Z" fill="white"/>
<rect x="23.9297" y="32.9981" width="20.6658" height="16.0712" fill="#4782FF"/>
<path d="M34.3651 53.3549L29.8437 44.6765L38.8865 44.6765L34.3651 53.3549Z" fill="#4782FF"/>
<path d="M33.6603 45.2946C32.7033 45.2946 31.3503 44.9206 30.6023 44.1836L31.3283 43.0836C32.0103 43.6886 32.8463 43.9746 33.6603 43.9746C34.7713 43.9746 35.2773 43.6336 35.2773 42.9956C35.2773 41.5546 30.9323 42.0056 30.9323 39.3876C30.9323 37.9576 32.0763 37.0336 33.8033 37.0336C35.1233 37.0336 35.9923 37.5286 36.7403 38.1996L35.9263 39.1676C35.2883 38.6396 34.6173 38.3536 33.8693 38.3536C33.0443 38.3536 32.4833 38.6506 32.4833 39.2776C32.4833 40.6416 36.8283 40.1796 36.8283 42.8526C36.8283 44.2936 35.6843 45.2946 33.6603 45.2946ZM33.3083 37.5726V35.6696H34.3863V37.5726H33.3083ZM33.3083 46.6696V44.6456H34.3863V46.6696H33.3083Z" fill="white"/>
</g>
<defs>
<clipPath id="clip0_1667_4115">
<rect width="64" height="64" fill="white"/>
</clipPath>
</defs>
</svg>
