<svg width="80" height="80" viewBox="0 0 80 80" fill="none" xmlns="http://www.w3.org/2000/svg">
<rect x="6" y="13.4286" width="68" height="46.5" fill="#253340"/>
<rect x="6" y="9" width="68" height="43.1786" fill="#D8DBE1"/>
<rect x="24.6406" y="66.5715" width="30.7097" height="4.42857" rx="2.21429" fill="#253340"/>
<rect x="31.2188" y="57.7144" width="17.5484" height="9.96429" fill="#253340"/>
<rect x="10.3906" y="13.4285" width="4.3871" height="4.42857" fill="#253340"/>
<rect x="16.9688" y="13.4285" width="4.3871" height="4.42857" fill="#253340"/>
<rect x="23.5469" y="13.4285" width="4.3871" height="4.42857" fill="#253340"/>
<path d="M23.2405 30.3961H25.5609L26.5906 35.1965H26.6535L27.7508 30.3961H30.0181L31.1397 35.1627H31.2025L32.2032 30.3961H34.5236L32.5706 37.8215H30.11L28.9256 33.4272H28.8385L27.659 37.8215H25.1935L23.2405 30.3961ZM34.9026 30.3961H37.223L38.2527 35.1965H38.3156L39.413 30.3961H41.6802L42.8018 35.1627H42.8646L43.8653 30.3961H46.1857L44.2327 37.8215H41.7721L40.5877 33.4272H40.5007L39.3211 37.8215H36.8556L34.9026 30.3961ZM46.5647 30.3961H48.8851L49.9148 35.1965H49.9777L51.0751 30.3961H53.3423L54.4639 35.1627H54.5267L55.5274 30.3961H57.8479L55.8948 37.8215H53.4342L52.2498 33.4272H52.1628L50.9832 37.8215H48.5177L46.5647 30.3961Z" fill="#0042CF"/>
<rect width="4.12138" height="6.19984" transform="matrix(0.80513 -0.593098 0.585859 0.810413 54.6719 46.6552)" fill="#253340"/>
<rect width="6.86897" height="15.1552" transform="matrix(0.80513 -0.593098 0.585859 0.810413 55.9844 50.8192)" fill="#2369FF"/>
<path d="M62.6663 35.4478C61.3418 44.0057 53.4025 49.8371 44.957 48.5052C36.5115 47.1732 30.7126 39.175 32.0372 30.6172C33.3617 22.0593 41.301 16.2278 49.7465 17.5598C58.192 18.8918 63.9908 26.8899 62.6663 35.4478Z" fill="white" stroke="#2369FF" stroke-width="3"/>
<path d="M35.1096 30.3961H37.43L38.4597 35.1965H38.5226L39.6199 30.3961H41.8872L43.0088 35.1627H43.0716L44.0723 30.3961H46.3927L44.4397 37.8215H41.9791L40.7947 33.4272H40.7077L39.5281 37.8215H37.0626L35.1096 30.3961ZM46.7717 30.3961H49.0921L50.1218 35.1965H50.1847L51.2821 30.3961H53.5493L54.6709 35.1627H54.7337L55.7344 30.3961H58.0548L56.1018 37.8215H53.6412L52.4568 33.4272H52.3698L51.1902 37.8215H48.7247L46.7717 30.3961Z" fill="#0042CF"/>
</svg>
