<svg width="80" height="80" viewBox="0 0 80 80" fill="none" xmlns="http://www.w3.org/2000/svg">
<path d="M80 28.3594H18.7507V64.8201H71.2501L80 72.9998V64.8201V28.3594Z" fill="#ABB1BF"/>
<path d="M32.0312 48.5469V46.1641L41.7188 41.8672V44.6211L35.1367 47.2871V47.4043L41.7188 50.0703V52.8242L32.0312 48.5469Z" fill="white"/>
<path d="M49.3936 41.8965L45.9805 54.5967H44.5889L48.002 41.8965H49.3936Z" fill="white"/>
<path d="M62.9854 48.5469L53.2979 52.8242V50.0703L59.8799 47.4043V47.2871L53.2979 44.6211V41.8672L62.9854 46.1641V48.5469Z" fill="white"/>
<path d="M0 22.8091H42.4995V44.2023H8.7499L0 52.3821V44.2023V22.8091Z" fill="#253340"/>
<ellipse cx="21.875" cy="33.5056" rx="1.87498" ry="1.88764" fill="#ABB1BF"/>
<ellipse cx="30.6172" cy="33.5056" rx="1.87498" ry="1.88764" fill="#ABB1BF"/>
<ellipse cx="13.125" cy="33.5056" rx="1.87498" ry="1.88764" fill="#ABB1BF"/>
<path d="M6.25781 14H48.7573V35.3933H15.0077L6.25781 43.573V35.3933V14Z" fill="#0042CF"/>
<ellipse cx="28.1328" cy="24.6967" rx="1.87498" ry="1.88764" fill="white"/>
<ellipse cx="36.875" cy="24.6967" rx="1.87498" ry="1.88764" fill="white"/>
<ellipse cx="19.3828" cy="24.6967" rx="1.87498" ry="1.88764" fill="white"/>
</svg>
